<svg id="Layer_1" data-name="Layer 1" xmlns="http://www.w3.org/2000/svg" viewBox="0 0 566.93 566.93"><defs><style>.cls-1{fill:#0279ae;}.cls-2{fill:#0379ae;}.cls-3{fill:#0278ae;}.cls-4{fill:#0a7db1;}.cls-5{fill:#f4f1f4;}.cls-6{fill:#e41937;}.cls-7{fill:#0478ae;}.cls-8{fill:#e1081f;}.cls-9{fill:#0468a4;}.cls-10{fill:#fdf7f8;}.cls-11{fill:#f8fbfc;}</style></defs><path class="cls-1" d="M27.54,181.87c3.38-6,8.59-7.81,15.33-7.78,41,.19,81.94.09,122.91.1,11.82,0,15.49,3.68,15.49,15.51V311.1c0,11.31-3.6,14.89-14.94,14.89-41.47,0-82.94-.11-124.41.11-6.81,0-11.58-2.07-14.38-8.29ZM79.92,313.72c2.44.66,4.21-.73,5.94-2.46q36.52-36.57,73.06-73.11c4.54-4.55,4.56-7.92.09-12.43q-15.81-16-31.78-31.77c-4.4-4.35-8.09-4.33-12.52.09q-36.58,36.5-73.09,73.09c-4.26,4.28-4.33,7.92-.2,12.11,10.64,10.78,21.4,21.43,32.07,32.18C75.26,313.2,77.18,314.22,79.92,313.72Z"/><path class="cls-1" d="M539.39,407.78c-3,2.41-5.38,3.76-8.51-.52-26.45-36.18-76.3-40.72-109-10.11-.95.89-1.94,1.74-3.22,2.89-6.81-19.83-13.5-39.29-20.17-58.76-8.4-24.52-16.83-49-25.11-73.59-1.08-3.19-2.41-4.35-5.47-2.46a5.68,5.68,0,0,1-.9.42c-3,1.09-6.12,3.4-8.82,3-3.09-.51-1.42-5.06-2.95-7.56-1.91-3.13-3.5-5.35-9-9.5,6.23-2.52,12.08-4.89,17.94-7.24,3.09-1.24,6.17-2.48,9.3-3.62,7.13-2.59,12.45-.15,15,7q7.08,20.24,13.89,40.55a7,7,0,0,0,4,4.57c26.63,12.23,45.19,31.82,54.1,60,1.26,4,3.18,5.14,7.34,5.35,31.72,1.55,55.88,15.5,70.83,44.11.13.24.52.33.78.49Z"/><path class="cls-2" d="M79.48,377.31c-7.65-2.76-8.8-4.42-8.8-12.82,0-5.66,0-11.32,0-17,.07-7.28,3.06-10.38,10.33-10.43,11.16-.09,22.32,0,33.48,0H244.44c10.28,0,12.61,2.35,12.63,12.67,0,5.33-.05,10.66,0,16,.05,4-.51,7.74-4.43,9.88-1.59.86-1.34,2.15-1.21,3.44a177.52,177.52,0,0,0,15.19,57.07c1.32,2.9,3.58,2.42,5.85,2.42H394.42c6,0,6,0,5.39,6.11a53.64,53.64,0,0,0,.69,14.43c.62,3.7-.65,4.48-4.12,4.45-21-.13-42-.06-63-.06-31,0-62-.11-93,.11-4.71,0-5.39-1.3-4.91-5.63,4.19-38.31-19.75-71.43-57.21-79.46-48.27-10.36-93.08,31.4-86,80.27.55,3.85-.32,4.91-4.21,4.79-9-.27-18-.23-27,0-3.39.08-4.21-1-4-4.28,1.16-18.45,6.27-36,12.08-53.35C72.42,396.29,76.05,386.84,79.48,377.31Z"/><path class="cls-3" d="M265.26,205.84a75,75,0,0,1-8.45-17.1c-4-10.88-14-16-24.16-12.42-9.78,3.48-14.63,14-10.94,24.54a120.9,120.9,0,0,0,31.91,48.83c2.6,2.44,3.46,4.69,3,8.18-.73,5.77-.73,11.63-1.24,17.43-.26,2.91.81,3.62,3.61,3.59,12.82-.14,25.65,0,38.48-.09a20.06,20.06,0,0,1,6.83,1.08,141.89,141.89,0,0,0,31.55,7.18,6.77,6.77,0,0,1,6,4.29,24.47,24.47,0,0,1,1.42,17c-8.6,34.68-17.11,69.39-25.77,104.06-3.29,13.17-15,20.34-27.62,17.27-12.26-3-19.27-15.27-16.06-28.45,5.9-24.22,11.8-48.45,17.93-72.61,1-3.76.59-4.84-3.56-4.79-17.66.21-35.32.13-53,0a84.62,84.62,0,0,1-12.44-.71c-18.3-2.77-28.94-14.54-31.29-33-4.21-33.13-1.18-65.38,10-96.89,4.63-13,11.75-23.87,24.66-29.94,20.36-9.56,37.9-.19,41.05,22A40.86,40.86,0,0,1,265.26,205.84Z"/><path class="cls-3" d="M472.08,387.38c34,0,62.11,27.83,62.06,61.41-.06,34.39-28.06,62.83-61.53,62.5-35.09-.35-62.41-27.48-62.42-62A61.74,61.74,0,0,1,472.08,387.38Zm24.41,61.82a24.48,24.48,0,1,0-24.31,24.55A24.42,24.42,0,0,0,496.49,449.2Z"/><path class="cls-3" d="M164,387.39c34.09.05,61.9,27.78,61.73,61.54-.18,34.46-27.52,62.41-61,62.36-35,0-63-27.7-62.93-62.14A62.07,62.07,0,0,1,164,387.39ZM139.47,449A24.47,24.47,0,1,0,164.1,424.8,24.43,24.43,0,0,0,139.47,449Z"/><path class="cls-3" d="M322.29,175.48c-12.46-7.29-24.5-14.32-36.54-21.34-14.35-8.38-28.68-16.81-43.12-25-2.52-1.44-3.43-3-3.35-5.85.2-8,.43-16,2.05-23.83C245.05,81.24,254.79,73,273.4,70.87c32.71-3.72,55.31,12.06,73.45,37,.16.22.08.6.16,1.48H315.74c-12,0-11.12.08-12.24,11.81-1,10.76,2.15,17.68,12.24,21.57,2.6,1,4.73,3.17,7.31,4.26,5.05,2.12,6.32,5.19,4.38,10.44C325.32,163.11,324.05,169.14,322.29,175.48Z"/><path class="cls-1" d="M335.73,283.06c-37.86-5.16-71.34-21.3-95.12-54.59a108.32,108.32,0,0,1-14.71-28.18c-3.09-9.09.4-17.41,8.3-20.14,8.07-2.78,15.65,1.6,19.07,10.61,12.26,32.3,36.56,50.93,69,60.07,6.05,1.7,12.36,2.52,18.52,3.86,8,1.72,12.55,8,11.71,16C351.7,278,345.31,283.29,335.73,283.06Z"/><path class="cls-1" d="M453.06,256c-.13,6.88-.48,16.19-4.56,24.84-2.83,6-5.76,7.57-12.28,7-15.32-1.46-27.7-15.1-27.93-30.78-.24-16.17,11.54-30.22,26.94-32.12,7.55-.93,11.06,1,14,8.16C451.86,239.6,452.64,246.54,453.06,256Z"/><path class="cls-4" d="M316.73,113.18c9.72,0,9.68,0,9.9,9.65a42.85,42.85,0,0,1-2.38,14.62c-1.15,3.47-2.26,4.19-6,2.25-7.54-3.89-12-8.39-10.75-17.87C308.56,113.3,307.69,113.18,316.73,113.18Z"/><path class="cls-4" d="M248.25,136.89l44.53,26C274.9,167.38,254.08,155.35,248.25,136.89Z"/><path class="cls-5" d="M79.92,313.72c-2.74.5-4.66-.52-6.43-2.3C62.82,300.67,52.06,290,41.42,279.24c-4.13-4.19-4.06-7.83.2-12.11q36.5-36.6,73.09-73.09c4.43-4.42,8.12-4.44,12.52-.09q16,15.81,31.78,31.77c4.47,4.51,4.45,7.88-.09,12.43q-36.49,36.59-73.06,73.11C84.13,313,82.36,314.38,79.92,313.72Zm48.71-113.13.16.14-1.16-1.14.16.14-1.16-1.14.16.14-1.16-1.14.16.14-1.16-1.14.16.14-1.16-1.14.11.1q-2.73-2.83-5.45,0l.1-.09c-.38.39-.76.77-1.15,1.15l.15-.15-1.15,1.15.15-.16-1.15,1.15.14-.15-1.14,1.15.14-.15-1.14,1.15.14-.15-1.14,1.15.15-.15-1.15,1.15.15-.15-1.15,1.15.15-.15-1.15,1.15.15-.15-1.15,1.15.15-.15-1.15,1.15.15-.15-1.15,1.15.15-.15-1.15,1.15.15-.15-1.14,1.15.14-.15-1.14,1.15.14-.15-1.15,1.15.15-.15-1.15,1.15.15-.15-1.15,1.15.15-.16-1.15,1.16.15-.16-1.15,1.16.15-.16-1.15,1.16.15-.16-1.15,1.16.15-.16-1.15,1.16.15-.16-1.14,1.16.14-.16-1.14,1.16.14-.16-1.14,1.16.14-.16-1.14,1.16.14-.16-1.14,1.16.14-.16-1.14,1.16.14-.16-1.14,1.15.14-.15-1.14,1.15.14-.15-1.14,1.15.15-.15-1.15,1.15.15-.15-1.15,1.15.08-.13c-2.87,1.57-2.24,3,.14,4.41q17,17.88,34.89,34.87c1,1.7,2.14,2.84,3.46.21l-.13.07,1.14-1.16-.14.16,1.14-1.16-.14.16,1.14-1.16-.14.16,1.14-1.16-.14.16,1.14-1.16-.14.16,1.14-1.16-.14.16,1.14-1.16-.14.16,1.14-1.15-.14.15,1.14-1.15-.14.16,1.15-1.16-.15.16,1.15-1.16-.15.16,1.15-1.16-.15.16,1.14-1.16-.14.16,1.14-1.16-.14.16,1.14-1.16-.15.16,1.15-1.16-.15.16,1.15-1.16-.15.16,1.15-1.16-.15.16,1.15-1.16-.15.16,1.15-1.16-.15.16,1.15-1.16-.15.16,1.15-1.16-.15.16,1.15-1.16-.15.16,1.15-1.16-.15.16,1.15-1.15-.14.15,1.14-1.15-.14.16,1.14-1.16-.15.16,1.15-1.16-.15.15,1.15-1.15-.15.15,1.15-1.15-.15.15,1.15-1.15-.15.15,1.15-1.15-.15.15,1.15-1.15-.15.16,1.15-1.16-.18.14,1.17-1.23a2.42,2.42,0,0,0,.51-3.1,2.87,2.87,0,0,0-1.63-2.24l.08.13-1.15-1.15.15.15-1.15-1.15.15.15-1.15-1.15.15.15-1.15-1.15.15.15-1.15-1.15.15.15-1.15-1.15.15.15-1.15-1.15.16.15-1.16-1.15.16.15-1.16-1.15.16.15-1.16-1.15.16.15-1.16-1.14.15.15-1.15-1.15.15.15-1.15-1.15.15.15-1.15-1.15.15.15-1.15-1.15.16.15-1.16-1.15.16.15-1.16-1.15.16.15-1.16-1.15.16.15-1.16-1.15.16.15-1.16-1.15.16.15-1.16-1.15.16.15-1.15-1.15.15.15-1.15-1.15.15.15-1.15-1.15.15.15-1.16-1.15.16.15-1.16-1.15.16.15-1.16-1.14.16.14ZM75.29,307.94l1.12,1.12L76.3,309l1,.93c2.38,2,4.27.8,6-1q16.66-16.79,33.31-33.59c1-.84,3-1.47.66-3l-.37-.19-.77-.74-.23-.26-.77-.74-.23-.26-.77-.74-.23-.26-.77-.74-.23-.26-.77-.74-.23-.26-.77-.74-.23-.26-.77-.74-.23-.26-.77-.74-.23-.26-.76-.74-.24-.26-.76-.74-.24-.26-.76-.74-.24-.26-.76-.74-.24-.26-.76-.74-.24-.26-.76-.74-.24-.26-.76-.74-.24-.26-.76-.74-.24-.26-.76-.74-.24-.26-.76-.74-.24-.25-.76-.75-.24-.25-.77-.75-.22-.25-.78-.75-.22-.25-.78-.74-.22-.26-.78-.74-.22-.26-.77-.74-.23-.26-.77-.74-.23-.26-.77-.74-.23-.26-.77-.74-.23-.26-.77-.74-.23-.26-.77-.74-.23-.26-.77-.74-.23-.26-.77-.74-.23-.26-.77-.74-.23-.26-.77-.74-.23-.26-.77-.74-.23-.25-.78-.75-.22-.25-.78-.75-.17-.36c-1.71-2.73-2.69-.92-3.72.6l.1-.07-1.12,1.13.12-.13-1.12,1.13.12-.13-1.12,1.13.12-.13-1.12,1.13.13-.13-1.13,1.13.13-.13-1.13,1.13.13-.13-1.13,1.13.13-.13-1.13,1.13.13-.13-1.13,1.13.12-.13-1.12,1.13.12-.14-1.12,1.14.12-.14-1.12,1.14.12-.13-1.12,1.13.12-.13-1.12,1.13.13-.13-1.13,1.13.13-.13-1.13,1.13.13-.14-1.13,1.14.13-.14-1.13,1.14.13-.14-1.13,1.14.13-.13-1.12,1.13.12-.13-1.12,1.13.12-.13-1.12,1.13.12-.13-1.13,1.12.13-.13-1.13,1.13.13-.13-1.13,1.13.13-.13-1.13,1.13.13-.13-1.13,1.13.13-.13-1.12,1.13.12-.13-1.12,1.13.12-.13-1.12,1.13.12-.13-1.12,1.13.12-.13-1.12,1.13.12-.13-1.12,1.13.12-.13-1.11,1.14.08-.08c-2,1.8-2,3.6,0,5.39L43.3,276l1.12,1.12-.13-.12,1.13,1.12-.13-.12,1.13,1.12-.13-.12,1.13,1.12-.13-.12,1.13,1.12-.13-.12,1.13,1.12-.13-.12,1.13,1.12-.13-.12,1.12,1.12-.12-.12,1.12,1.12-.12-.12,1.12,1.12-.12-.12,1.13,1.12-.13-.12,1.13,1.12-.13-.12,1.13,1.12-.13-.12,1.13,1.12-.13-.12,1.12,1.12-.12-.12,1.12,1.12-.12-.12,1.12,1.12-.12-.12,1.12,1.12-.12-.12,1.12,1.12-.12-.12,1.12,1.12-.12-.12,1.12,1.12-.13-.12,1.13,1.12-.13-.12,1.13,1.12-.13-.13,1.13,1.12-.12-.12,1.12,1.12-.12-.12,1.12,1.12-.12-.12,1.12,1.12-.12-.12,1.12,1.12-.12-.12,1.12,1.12-.12-.12,1.12,1.12-.12-.12,1.12,1.12-.12-.12,1.12,1.12Z"/><path class="cls-6" d="M119.36,268.88q-17.91-17-34.89-34.87l-.14-4.41-.08.13,1.15-1.15-.15.15,1.15-1.15-.15.15,1.14-1.15-.14.15,1.14-1.15-.14.15,1.14-1.15-.14.15,1.14-1.15-.14.15,1.14-1.15-.14.16,1.14-1.16-.14.15,1.14-1.15-.14.15,1.14-1.15-.14.15,1.14-1.15-.14.16,1.14-1.16-.14.16,1.14-1.16-.14.16,1.14-1.16-.15.16,1.15-1.16-.15.16,1.15-1.16-.15.16,1.15-1.15-.14.15,1.14-1.15-.14.15,1.14-1.15-.14.15,1.14-1.15-.14.15,1.14-1.15-.14.15,1.14-1.15-.15.15,1.15-1.15-.15.15,1.15-1.15-.15.15,1.15-1.15-.15.15,1.15-1.15-.15.15,1.15-1.15-.15.15,1.15-1.15-.15.15,1.14-1.15-.14.15,1.14-1.15-.14.15,1.14-1.15-.14.15,1.15-1.15-.15.16,1.15-1.15-.14.15,1.14-1.15-.1.1h5.45l-.11-.09,1.16,1.13-.16-.14,1.16,1.14-.16-.14,1.16,1.14-.16-.14,1.16,1.14-.16-.14,1.16,1.14-.16-.14,1.16,1.14-.16-.14,1.16,1.14-.16-.14,1.16,1.14-.16-.15,1.16,1.15-.15-.15,1.15,1.15-.15-.15,1.15,1.15-.15-.15,1.15,1.15-.16-.15,1.16,1.15-.16-.15,1.16,1.15-.16-.15,1.16,1.15-.16-.15,1.16,1.15-.16-.15,1.16,1.15-.16-.15,1.16,1.15-.16-.15c.39.38.77.76,1.15,1.15l-.15-.15,1.15,1.15-.15-.15,1.15,1.15-.15-.15,1.15,1.15-.15-.15,1.16,1.14-.16-.15,1.16,1.15-.16-.15,1.16,1.15-.16-.15,1.16,1.15-.16-.15,1.15,1.15-.15-.14,1.15,1.14-.15-.14,1.15,1.14-.15-.15c.38.39.77.77,1.15,1.15l-.15-.15c.38.39.77.77,1.15,1.15l-.15-.15c.38.39.77.77,1.15,1.15l-.15-.15c.38.39.77.77,1.15,1.15l-.08-.13c-.28,1.35.23,2.13,1.63,2.24a2.42,2.42,0,0,1-.51,3.1l-1.17,1.23.17-.14a1.18,1.18,0,0,0-1.14,1.16l.14-.16a1.19,1.19,0,0,0-1.14,1.15l.14-.15a1.19,1.19,0,0,0-1.14,1.15l.14-.15a1.19,1.19,0,0,0-1.14,1.15l.15-.15a1.19,1.19,0,0,0-1.15,1.15l.15-.15a1.19,1.19,0,0,0-1.15,1.15l.15-.15a1.19,1.19,0,0,0-1.15,1.16l.15-.16a1.18,1.18,0,0,0-1.14,1.16l.14-.16a1.17,1.17,0,0,0-1.14,1.15l.14-.15a1.18,1.18,0,0,0-1.15,1.15l.15-.16a1.2,1.2,0,0,0-1.15,1.16l.15-.16a1.2,1.2,0,0,0-1.15,1.16l.15-.16a1.2,1.2,0,0,0-1.15,1.16l.15-.16a1.2,1.2,0,0,0-1.15,1.16l.15-.16a1.2,1.2,0,0,0-1.15,1.16l.15-.16a1.2,1.2,0,0,0-1.15,1.16l.15-.16a1.19,1.19,0,0,0-1.15,1.16l.15-.16a1.19,1.19,0,0,0-1.15,1.16l.15-.16a1.19,1.19,0,0,0-1.15,1.16l.15-.16a1.18,1.18,0,0,0-1.14,1.16l.14-.16a1.18,1.18,0,0,0-1.14,1.16l.14-.16a1.18,1.18,0,0,0-1.14,1.16l.14-.16a1.18,1.18,0,0,0-1.14,1.16l.14-.16a1.18,1.18,0,0,0-1.14,1.16l.14-.16a1.18,1.18,0,0,0-1.14,1.16l.14-.16a1.17,1.17,0,0,0-1.14,1.15l.14-.15a1.17,1.17,0,0,0-1.14,1.15l.14-.15a1.17,1.17,0,0,0-1.14,1.15l.14-.16a1.19,1.19,0,0,0-1.14,1.16l.14-.16a1.19,1.19,0,0,0-1.14,1.16l.14-.16a1.19,1.19,0,0,0-1.14,1.16l.14-.16a1.18,1.18,0,0,0-1.14,1.16l.14-.16a1.18,1.18,0,0,0-1.14,1.16l.14-.16a1.18,1.18,0,0,0-1.14,1.16l.13-.07Zm11.38-37.19a9.78,9.78,0,0,0-9.49-9.63,10,10,0,0,0-9.84,9.86c0,4.5,5.52,10.62,9.52,10.65C125.3,242.6,130.79,236.51,130.74,231.69Z"/><path class="cls-7" d="M116.65,275.36Q100,292.16,83.34,309c-1.75,1.77-3.64,2.95-6,1,1-1.74-.56-.74-1-.93l.11.07-1.12-1.12.12.12-1.12-1.12.12.12-1.12-1.12.12.12-1.12-1.12.12.12-1.12-1.12.12.12-1.12-1.12.12.12-1.12-1.12.12.12-1.12-1.12.12.12-1.12-1.12.12.12-1.13-1.12.13.13L65.28,298l.13.12c-.37-.38-.75-.75-1.13-1.12l.13.12L63.29,296l.12.12L62.29,295l.12.12L61.29,294l.12.12L60.29,293l.12.12L59.29,292l.12.12L58.29,291l.12.12L57.29,290l.13.12L56.29,289l.13.12L55.29,288l.13.12L54.29,287l.13.12L53.29,286l.12.12L52.29,285l.12.12L51.29,284l.12.12L50.29,283l.13.12L49.29,282l.13.12L48.29,281l.13.12L47.29,280l.13.12L46.29,279l.13.12L45.29,278l.13.12L44.29,277l.13.12L43.3,276l.08.07c0-1.8,0-3.59,0-5.39l-.08.08,1.11-1.14-.12.13,1.12-1.13-.12.13,1.12-1.13-.12.13,1.12-1.13-.12.13,1.12-1.13-.12.13,1.12-1.13-.12.13,1.12-1.13-.12.13,1.12-1.13-.13.13,1.13-1.13-.13.13,1.13-1.13-.13.13,1.13-1.13-.13.13,1.13-1.12-.12.13,1.12-1.13-.12.13,1.12-1.13-.12.13,1.12-1.13-.12.13,1.12-1.14-.13.14,1.13-1.14-.13.14,1.13-1.14-.13.14c.38-.38.75-.76,1.13-1.13l-.13.13c.38-.38.75-.76,1.13-1.13l-.13.13,1.12-1.13-.12.13,1.12-1.13-.12.13,1.12-1.14-.12.14,1.12-1.14-.12.14,1.12-1.13-.12.13c.37-.38.75-.75,1.13-1.13l-.13.13,1.13-1.13-.13.13,1.13-1.13-.13.13,1.13-1.13-.13.13,1.13-1.13-.13.13c.38-.37.75-.75,1.12-1.13l-.12.13c.38-.37.75-.75,1.12-1.13l-.12.13,1.12-1.13-.12.13,1.12-1.13-.1.07a4.64,4.64,0,0,0,3.72-.6l.17.36c-.29.84,0,1.08.78.75l.22.25c-.29.84,0,1.08.78.75,0,0,.23.25.22.25-.29.84,0,1.08.78.74a2.88,2.88,0,0,1,.22.27c-.29.83,0,1.07.78.73a2.88,2.88,0,0,1,.22.27c-.29.83,0,1.06.78.73l.23.27c-.3.83,0,1.06.77.73a2.88,2.88,0,0,1,.22.27c-.29.83,0,1.06.78.73,0,0,.23.26.22.26-.29.84,0,1.07.78.74,0,0,.23.26.22.26-.29.84,0,1.07.78.74,0,0,.23.26.22.26-.29.84,0,1.07.78.74,0,0,.23.26.22.26-.29.84,0,1.07.78.74,0,0,.23.26.22.26-.29.84,0,1.07.78.74,0,0,.23.26.22.26-.29.84,0,1.07.78.74l.22.26c-.29.83,0,1.07.78.74l.22.26c-.29.83,0,1.07.78.74l.22.26c-.29.83,0,1.07.78.74l.22.26c-.29.83,0,1.07.77.74a2.85,2.85,0,0,1,.23.26c-.29.83,0,1.07.77.74a2.85,2.85,0,0,1,.23.26c-.29.83,0,1.07.77.73a3,3,0,0,1,.23.27c-.29.83,0,1.07.77.73a3,3,0,0,1,.23.27c-.29.83,0,1.07.77.73a3,3,0,0,1,.23.27c-.29.83,0,1.07.77.73a3,3,0,0,1,.23.27c-.29.83,0,1.07.77.73a3,3,0,0,1,.23.27c-.29.83,0,1.07.77.73a3,3,0,0,1,.23.27c-.29.83,0,1.06.77.73a3,3,0,0,1,.23.27c-.29.83,0,1.06.77.73a3,3,0,0,1,.23.27c-.3.83,0,1.06.77.73a3,3,0,0,1,.23.27c-.3.83,0,1.06.77.73l.23.26c-.3.84,0,1.07.77.74,0,0,.23.26.22.26-.29.84,0,1.07.78.74,0,0,.23.26.22.26-.29.84,0,1.07.78.74,0,0,.23.26.22.26-.29.84,0,1.07.78.74,0,0,.23.26.22.26-.29.84,0,1.07.78.74,0,0,.23.26.22.26-.29.84,0,1.07.78.74,0,0,.23.26.22.26-.29.84,0,1.07.78.74l.23.26c-.3.84,0,1.07.77.74l.36.19C117.08,273.34,116.86,274.35,116.65,275.36ZM75,273.3a9.7,9.7,0,0,0-19.4-.25,9.7,9.7,0,0,0,19.4.25Zm28.49.53a9.68,9.68,0,1,0-19.35-.57,9.68,9.68,0,0,0,19.35.57Z"/><path class="cls-8" d="M84.33,229.6l.14,4.41C82.09,232.62,81.46,231.17,84.33,229.6Z"/><path class="cls-9" d="M43.36,270.63c0,1.8,0,3.59,0,5.39C41.41,274.23,41.38,272.43,43.36,270.63Z"/><path class="cls-8" d="M123.74,195.69h-5.45Q121,192.85,123.74,195.69Z"/><path class="cls-9" d="M81,236.05a4.64,4.64,0,0,1-3.72.6C78.31,235.13,79.29,233.32,81,236.05Z"/><path class="cls-8" d="M119.36,268.88l3.46.21C121.5,271.72,120.41,270.58,119.36,268.88Z"/><path class="cls-8" d="M158.33,230.83c-1.4-.11-1.91-.89-1.63-2.24A2.87,2.87,0,0,1,158.33,230.83Z"/><path class="cls-9" d="M116.65,275.36c.21-1,.43-2,.65-3C119.62,273.89,117.67,274.52,116.65,275.36Z"/><path class="cls-9" d="M76.3,309c.46.19,2-.81,1,.93Z"/><path class="cls-8" d="M112.39,201.59l-1.15,1.15C111.62,202.36,112,202,112.39,201.59Z"/><path class="cls-8" d="M130.79,202.73l-1.16-1.14Z"/><path class="cls-8" d="M111.39,202.59l-1.15,1.15C110.62,203.36,111,203,111.39,202.59Z"/><path class="cls-8" d="M131.79,203.73l-1.16-1.14Z"/><path class="cls-8" d="M110.39,203.59l-1.15,1.15Z"/><path class="cls-8" d="M132.79,204.73l-1.16-1.15Z"/><path class="cls-8" d="M109.39,204.59l-1.15,1.15Z"/><path class="cls-8" d="M133.79,205.73l-1.15-1.15Z"/><path class="cls-8" d="M108.39,205.59l-1.15,1.15Z"/><path class="cls-8" d="M134.79,206.73l-1.15-1.15Z"/><path class="cls-8" d="M107.39,206.59l-1.15,1.15Z"/><path class="cls-8" d="M135.79,207.73l-1.15-1.15Z"/><path class="cls-8" d="M106.39,207.59l-1.14,1.15Z"/><path class="cls-8" d="M136.79,208.73l-1.16-1.15Z"/><path class="cls-8" d="M105.39,208.59l-1.14,1.15Z"/><path class="cls-8" d="M137.79,209.73l-1.16-1.15Z"/><path class="cls-8" d="M104.39,209.59l-1.14,1.15Z"/><path class="cls-8" d="M138.79,210.73l-1.16-1.15Z"/><path class="cls-8" d="M103.39,210.59l-1.14,1.15Z"/><path class="cls-8" d="M139.79,211.73l-1.16-1.15Z"/><path class="cls-8" d="M102.39,211.59l-1.14,1.15Z"/><path class="cls-8" d="M140.79,212.73l-1.16-1.15Z"/><path class="cls-8" d="M101.39,212.59l-1.15,1.15Z"/><path class="cls-8" d="M141.79,213.73l-1.16-1.15Z"/><path class="cls-8" d="M100.39,213.58l-1.15,1.16Z"/><path class="cls-8" d="M142.78,214.73c-.38-.39-.76-.77-1.15-1.15C142,214,142.4,214.34,142.78,214.73Z"/><path class="cls-8" d="M99.39,214.58l-1.15,1.16Z"/><path class="cls-8" d="M143.78,215.73l-1.15-1.15Z"/><path class="cls-8" d="M98.39,215.58l-1.14,1.16Z"/><path class="cls-8" d="M144.78,216.73l-1.15-1.15Z"/><path class="cls-8" d="M97.39,216.58l-1.14,1.16Z"/><path class="cls-8" d="M145.78,217.73l-1.15-1.15Z"/><path class="cls-8" d="M96.39,217.58l-1.14,1.16Z"/><path class="cls-8" d="M146.79,218.72l-1.16-1.14Z"/><path class="cls-8" d="M95.39,218.58l-1.14,1.15Z"/><path class="cls-8" d="M147.79,219.72l-1.16-1.15Z"/><path class="cls-8" d="M94.39,219.58l-1.14,1.15Z"/><path class="cls-8" d="M148.79,220.72l-1.16-1.15Z"/><path class="cls-8" d="M93.39,220.58l-1.14,1.15Z"/><path class="cls-8" d="M149.79,221.72l-1.16-1.15Z"/><path class="cls-8" d="M92.39,221.58l-1.14,1.16Z"/><path class="cls-8" d="M150.78,222.72l-1.15-1.15Z"/><path class="cls-8" d="M91.39,222.58l-1.14,1.15Z"/><path class="cls-8" d="M151.78,223.72l-1.15-1.14Z"/><path class="cls-8" d="M90.39,223.58l-1.14,1.15Z"/><path class="cls-8" d="M152.78,224.72l-1.15-1.14Z"/><path class="cls-8" d="M89.39,224.58l-1.14,1.15Z"/><path class="cls-8" d="M153.78,225.72c-.38-.38-.77-.76-1.15-1.15C153,225,153.4,225.34,153.78,225.72Z"/><path class="cls-8" d="M88.39,225.58l-1.14,1.15Z"/><path class="cls-8" d="M154.78,226.72c-.38-.38-.77-.76-1.15-1.15Z"/><path class="cls-8" d="M87.39,226.58l-1.14,1.15Z"/><path class="cls-8" d="M155.78,227.72c-.38-.38-.77-.76-1.15-1.15Z"/><path class="cls-8" d="M86.4,227.58l-1.15,1.15Z"/><path class="cls-8" d="M156.78,228.72c-.38-.38-.77-.76-1.15-1.15Z"/><path class="cls-8" d="M85.4,228.58l-1.15,1.15Z"/><path class="cls-8" d="M156.65,235.16l1.17-1.23Z"/><path class="cls-8" d="M155.68,236.18a1.18,1.18,0,0,1,1.14-1.16Z"/><path class="cls-8" d="M154.68,237.17a1.19,1.19,0,0,1,1.14-1.15Z"/><path class="cls-9" d="M77.38,236.58l-1.12,1.13Z"/><path class="cls-9" d="M82,237.16c-.8.33-1.07.09-.78-.75Z"/><path class="cls-8" d="M153.68,238.17a1.19,1.19,0,0,1,1.14-1.15Z"/><path class="cls-9" d="M76.38,237.58l-1.12,1.13Z"/><path class="cls-9" d="M83,238.16c-.8.33-1.07.09-.78-.75Z"/><path class="cls-8" d="M152.68,239.17a1.19,1.19,0,0,1,1.14-1.15Z"/><path class="cls-9" d="M75.38,238.58c-.37.38-.74.76-1.12,1.13Z"/><path class="cls-9" d="M84,239.15c-.8.34-1.07.1-.78-.74Z"/><path class="cls-8" d="M151.68,240.17a1.19,1.19,0,0,1,1.15-1.15Z"/><path class="cls-9" d="M74.38,239.58c-.37.38-.74.76-1.12,1.13Z"/><path class="cls-9" d="M85,240.15c-.8.34-1.07.1-.78-.73C84.44,239.66,84.69,239.9,85,240.15Z"/><path class="cls-8" d="M150.68,241.17a1.19,1.19,0,0,1,1.15-1.15Z"/><path class="cls-9" d="M73.39,240.58l-1.13,1.13Z"/><path class="cls-9" d="M86,241.15c-.8.33-1.07.1-.78-.73C85.44,240.66,85.69,240.9,86,241.15Z"/><path class="cls-8" d="M149.68,242.18a1.19,1.19,0,0,1,1.15-1.16Z"/><path class="cls-9" d="M72.39,241.58l-1.13,1.13Z"/><path class="cls-9" d="M87,242.15c-.8.33-1.07.1-.77-.73Z"/><path class="cls-8" d="M148.69,243.18a1.18,1.18,0,0,1,1.14-1.16Z"/><path class="cls-9" d="M71.39,242.58l-1.13,1.13Z"/><path class="cls-9" d="M88,243.15c-.8.33-1.07.1-.78-.73C87.44,242.66,87.69,242.9,88,243.15Z"/><path class="cls-8" d="M147.69,244.17a1.17,1.17,0,0,1,1.14-1.15Z"/><path class="cls-9" d="M70.39,243.58l-1.13,1.13Z"/><path class="cls-9" d="M89,244.15c-.8.33-1.07.1-.78-.74Z"/><path class="cls-8" d="M146.68,245.17a1.18,1.18,0,0,1,1.15-1.15Z"/><path class="cls-9" d="M69.39,244.58c-.38.38-.76.75-1.13,1.13C68.63,245.33,69,245,69.39,244.58Z"/><path class="cls-9" d="M90,245.15c-.8.33-1.07.1-.78-.74Z"/><path class="cls-8" d="M145.68,246.17a1.2,1.2,0,0,1,1.15-1.16Z"/><path class="cls-9" d="M68.38,245.58l-1.12,1.13Z"/><path class="cls-9" d="M91,246.15c-.8.33-1.07.1-.78-.74Z"/><path class="cls-8" d="M144.68,247.17a1.2,1.2,0,0,1,1.15-1.16Z"/><path class="cls-9" d="M67.38,246.57l-1.12,1.14Z"/><path class="cls-9" d="M92,247.15c-.8.33-1.07.1-.78-.74Z"/><path class="cls-8" d="M143.68,248.17a1.2,1.2,0,0,1,1.15-1.16Z"/><path class="cls-9" d="M66.38,247.57l-1.12,1.14Z"/><path class="cls-9" d="M93,248.15c-.8.33-1.07.1-.78-.74Z"/><path class="cls-8" d="M142.68,249.17a1.2,1.2,0,0,1,1.15-1.16Z"/><path class="cls-9" d="M65.38,248.58l-1.12,1.13Z"/><path class="cls-9" d="M94,249.15c-.8.33-1.07.1-.78-.74Z"/><path class="cls-8" d="M141.68,250.17a1.2,1.2,0,0,1,1.15-1.16Z"/><path class="cls-9" d="M64.38,249.58l-1.12,1.13Z"/><path class="cls-9" d="M95,250.15c-.8.33-1.07.09-.78-.74Z"/><path class="cls-8" d="M140.68,251.17a1.2,1.2,0,0,1,1.15-1.16Z"/><path class="cls-9" d="M63.39,250.58c-.38.37-.75.75-1.13,1.13C62.64,251.33,63,251,63.39,250.58Z"/><path class="cls-9" d="M96,251.15c-.8.33-1.07.09-.78-.74Z"/><path class="cls-8" d="M139.68,252.17a1.19,1.19,0,0,1,1.15-1.16Z"/><path class="cls-9" d="M62.39,251.58c-.38.37-.75.75-1.13,1.13C61.64,252.33,62,252,62.39,251.58Z"/><path class="cls-9" d="M97,252.15c-.81.33-1.07.09-.78-.74Z"/><path class="cls-8" d="M138.68,253.17a1.19,1.19,0,0,1,1.15-1.16Z"/><path class="cls-9" d="M61.39,252.57l-1.13,1.14Z"/><path class="cls-9" d="M97.94,253.15c-.8.33-1.06.09-.77-.74Z"/><path class="cls-8" d="M137.68,254.17a1.19,1.19,0,0,1,1.15-1.16Z"/><path class="cls-9" d="M60.39,253.57l-1.13,1.14Z"/><path class="cls-9" d="M98.94,254.15c-.8.33-1.06.09-.77-.74Z"/><path class="cls-8" d="M136.69,255.17a1.18,1.18,0,0,1,1.14-1.16Z"/><path class="cls-9" d="M59.39,254.57l-1.12,1.14Z"/><path class="cls-9" d="M99.94,255.14c-.8.34-1.06.1-.77-.73Z"/><path class="cls-8" d="M135.69,256.17a1.18,1.18,0,0,1,1.14-1.16Z"/><path class="cls-9" d="M58.39,255.58l-1.12,1.13C57.64,256.33,58,256,58.39,255.58Z"/><path class="cls-9" d="M100.94,256.14c-.8.34-1.06.1-.77-.73Z"/><path class="cls-8" d="M134.69,257.17a1.18,1.18,0,0,1,1.14-1.16Z"/><path class="cls-9" d="M57.39,256.58l-1.12,1.13Z"/><path class="cls-9" d="M101.94,257.14c-.8.34-1.06.1-.77-.73Z"/><path class="cls-8" d="M133.69,258.17a1.18,1.18,0,0,1,1.14-1.16Z"/><path class="cls-9" d="M56.39,257.58l-1.12,1.13Z"/><path class="cls-9" d="M102.94,258.14c-.8.34-1.06.1-.77-.73Z"/><path class="cls-8" d="M132.69,259.17a1.18,1.18,0,0,1,1.14-1.16Z"/><path class="cls-9" d="M55.39,258.58l-1.13,1.12Z"/><path class="cls-9" d="M103.94,259.14c-.8.34-1.06.1-.77-.73C103.43,258.65,103.69,258.89,103.94,259.14Z"/><path class="cls-8" d="M131.69,260.17a1.18,1.18,0,0,1,1.14-1.16Z"/><path class="cls-9" d="M54.39,259.57l-1.13,1.13Z"/><path class="cls-9" d="M104.94,260.14c-.8.34-1.06.1-.77-.73C104.43,259.65,104.69,259.89,104.94,260.14Z"/><path class="cls-8" d="M130.69,261.16a1.17,1.17,0,0,1,1.14-1.15Z"/><path class="cls-9" d="M53.39,260.57l-1.13,1.13Z"/><path class="cls-9" d="M105.94,261.14c-.8.33-1.06.1-.77-.73C105.43,260.65,105.69,260.89,105.94,261.14Z"/><path class="cls-8" d="M129.69,262.16a1.17,1.17,0,0,1,1.14-1.15Z"/><path class="cls-9" d="M52.39,261.57l-1.13,1.13Z"/><path class="cls-9" d="M106.94,262.14c-.8.33-1.06.1-.77-.73C106.43,261.65,106.69,261.89,106.94,262.14Z"/><path class="cls-8" d="M128.69,263.16a1.17,1.17,0,0,1,1.14-1.15Z"/><path class="cls-9" d="M51.39,262.57l-1.12,1.13Z"/><path class="cls-9" d="M107.94,263.14c-.8.33-1.07.1-.77-.73C107.43,262.65,107.69,262.89,107.94,263.14Z"/><path class="cls-8" d="M127.69,264.16a1.19,1.19,0,0,1,1.14-1.16Z"/><path class="cls-9" d="M50.39,263.57l-1.12,1.13Z"/><path class="cls-8" d="M118.39,195.6l-1.14,1.15Z"/><path class="cls-8" d="M124.79,196.73l-1.16-1.13Z"/><path class="cls-9" d="M108.94,264.14c-.8.33-1.07.1-.77-.73C108.43,263.65,108.69,263.89,108.94,264.14Z"/><path class="cls-8" d="M126.69,265.16a1.19,1.19,0,0,1,1.14-1.16Z"/><path class="cls-9" d="M49.39,264.57l-1.12,1.13Z"/><path class="cls-9" d="M109.94,265.14c-.8.33-1.07.1-.77-.74Z"/><path class="cls-8" d="M117.39,196.6l-1.15,1.15Z"/><path class="cls-9" d="M48.39,265.57l-1.12,1.13Z"/><path class="cls-9" d="M110.94,266.14c-.8.33-1.07.1-.78-.74Z"/><path class="cls-8" d="M124.69,267.16a1.18,1.18,0,0,1,1.14-1.16Z"/><path class="cls-9" d="M47.39,266.57l-1.12,1.13Z"/><path class="cls-9" d="M111.94,267.14c-.8.33-1.07.1-.78-.74Z"/><path class="cls-8" d="M123.69,268.16a1.18,1.18,0,0,1,1.14-1.16Z"/><path class="cls-9" d="M46.39,267.57l-1.12,1.13Z"/><path class="cls-9" d="M112.94,268.14c-.8.33-1.07.1-.78-.74Z"/><path class="cls-8" d="M122.69,269.16a1.18,1.18,0,0,1,1.14-1.16Z"/><path class="cls-9" d="M45.39,268.57l-1.12,1.13Z"/><path class="cls-9" d="M113.94,269.14c-.8.33-1.07.1-.78-.74Z"/><path class="cls-8" d="M125.79,197.73l-1.16-1.14Z"/><path class="cls-9" d="M44.39,269.57l-1.11,1.14Z"/><path class="cls-9" d="M114.94,270.14c-.8.33-1.07.1-.78-.74C114.43,269.64,114.68,269.89,114.94,270.14Z"/><path class="cls-8" d="M116.39,197.59l-1.15,1.15Z"/><path class="cls-9" d="M115.94,271.14c-.8.33-1.07.1-.78-.74C115.43,270.64,115.68,270.89,115.94,271.14Z"/><path class="cls-9" d="M116.94,272.14c-.8.33-1.07.1-.77-.74Z"/><path class="cls-8" d="M126.79,198.73l-1.16-1.14Z"/><path class="cls-9" d="M43.3,276l1.12,1.12Z"/><path class="cls-9" d="M44.29,277l1.13,1.12Z"/><path class="cls-9" d="M45.29,278l1.13,1.12Z"/><path class="cls-9" d="M46.29,279l1.13,1.12Z"/><path class="cls-9" d="M47.29,280l1.13,1.12Z"/><path class="cls-9" d="M48.29,281l1.13,1.12Z"/><path class="cls-9" d="M49.29,282l1.13,1.12Z"/><path class="cls-9" d="M50.29,283l1.12,1.12Z"/><path class="cls-9" d="M51.29,284l1.12,1.12Z"/><path class="cls-9" d="M52.29,285l1.12,1.12Z"/><path class="cls-8" d="M125.69,266.16a1.19,1.19,0,0,1,1.14-1.16Z"/><path class="cls-9" d="M54.29,287l1.13,1.12Z"/><path class="cls-9" d="M55.29,288l1.13,1.12Z"/><path class="cls-9" d="M56.29,289l1.13,1.12Z"/><path class="cls-9" d="M57.29,290l1.12,1.12Z"/><path class="cls-9" d="M58.29,291l1.12,1.12Z"/><path class="cls-9" d="M59.29,292l1.12,1.12Z"/><path class="cls-9" d="M60.29,293l1.12,1.12Z"/><path class="cls-9" d="M61.29,294l1.12,1.12Z"/><path class="cls-9" d="M62.29,295l1.12,1.12Z"/><path class="cls-9" d="M63.29,296l1.12,1.12Z"/><path class="cls-9" d="M64.28,297c.38.37.76.74,1.13,1.12C65,297.69,64.66,297.32,64.28,297Z"/><path class="cls-9" d="M65.28,298l1.13,1.12C66,298.69,65.66,298.32,65.28,298Z"/><path class="cls-9" d="M66.28,298.94l1.13,1.12Z"/><path class="cls-9" d="M67.29,299.94l1.12,1.12Z"/><path class="cls-9" d="M68.29,300.94l1.12,1.12Z"/><path class="cls-9" d="M69.29,301.94l1.12,1.12Z"/><path class="cls-9" d="M70.29,302.94l1.12,1.12Z"/><path class="cls-9" d="M71.29,303.94l1.12,1.12Z"/><path class="cls-9" d="M72.29,304.94l1.12,1.12Z"/><path class="cls-9" d="M73.29,305.94l1.12,1.12Z"/><path class="cls-9" d="M74.29,306.94l1.12,1.12Z"/><path class="cls-9" d="M75.29,307.94l1.12,1.12Z"/><path class="cls-8" d="M115.38,198.59l-1.14,1.15Z"/><path class="cls-8" d="M127.79,199.73l-1.16-1.14Z"/><path class="cls-8" d="M114.38,199.59l-1.14,1.15Z"/><path class="cls-8" d="M128.79,200.73l-1.16-1.14Z"/><path class="cls-8" d="M113.38,200.59l-1.14,1.15Z"/><path class="cls-8" d="M129.79,201.73l-1.16-1.14Z"/><path class="cls-9" d="M53.29,286l1.13,1.12Z"/><path class="cls-10" d="M130.74,231.69c0,4.82-5.44,10.91-9.81,10.88-4,0-9.48-6.15-9.52-10.65a10,10,0,0,1,9.84-9.86A9.78,9.78,0,0,1,130.74,231.69Z"/><path class="cls-11" d="M75,273.3a9.7,9.7,0,0,1-19.4-.25,9.7,9.7,0,0,1,19.4.25Z"/><path class="cls-11" d="M103.51,273.83a9.68,9.68,0,0,1-19.35-.57,9.68,9.68,0,1,1,19.35.57Z"/></svg>