<svg id="Layer_1" data-name="Layer 1" xmlns="http://www.w3.org/2000/svg" viewBox="0 0 566.93 566.93"><defs><style>.cls-1{fill:#fff;}.cls-2{fill:#e41937;}.cls-3{fill:#0078ad;}.cls-4{fill:#fefefe;}</style></defs><path class="cls-1" d="M172.27,328.25c11.35,0,14.94-3.59,14.94-14.89q0-60.71,0-121.4c0-11.83-3.67-15.51-15.49-15.52-41,0-81.94.09-122.91-.09-6.74,0-12,1.77-15.34,7.78V320.07c2.81,6.22,7.57,8.32,14.38,8.29C89.33,328.14,130.8,328.25,172.27,328.25Zm-49-51.09.37-.26-.37.26-.44.3Zm0-2.57-.37-.2-.77-.73a2.88,2.88,0,0,0-.22-.27l-.78-.73a2.75,2.75,0,0,0-.22-.26l-.78-.74a2.75,2.75,0,0,0-.22-.26l-.78-.74a2.75,2.75,0,0,0-.22-.26l-.78-.74s-.22-.26-.22-.26l-.78-.74s-.22-.26-.22-.26l-.78-.74s-.22-.26-.22-.26c-.26-.25-.51-.5-.78-.74,0,0-.22-.26-.22-.26-.26-.25-.51-.5-.78-.74,0,0-.22-.26-.22-.26l-.77-.74-.23-.27-.77-.73-.23-.27-.77-.73-.23-.27-.77-.73-.23-.26-.77-.73-.23-.27-.77-.73-.23-.27c-.26-.25-.51-.49-.78-.73a2.88,2.88,0,0,0-.22-.27c-.26-.25-.51-.49-.78-.73a2.88,2.88,0,0,0-.22-.27c-.26-.25-.51-.49-.78-.73a2.88,2.88,0,0,0-.22-.27c-.26-.24-.51-.49-.78-.73a2.88,2.88,0,0,0-.22-.27c-.26-.24-.51-.49-.78-.73a2.88,2.88,0,0,0-.22-.27c-.26-.24-.51-.49-.78-.73a2.75,2.75,0,0,0-.22-.26c-.26-.25-.51-.5-.78-.74a2.75,2.75,0,0,0-.22-.26c-.26-.25-.51-.5-.78-.74a2.75,2.75,0,0,0-.22-.26c-.25-.25-.51-.5-.78-.74a2.75,2.75,0,0,0-.22-.26l-.77-.74-.23-.27-.77-.73s-.23-.27-.23-.27l-.77-.73s-.23-.27-.23-.27l-.77-.73s-.23-.27-.23-.27l-.77-.73s-.23-.27-.23-.27l-.77-.73s-.23-.27-.23-.27l-.77-.73s-.23-.27-.23-.27l-.77-.73s-.23-.26-.23-.26l-.77-.74s-.23-.26-.23-.26l-.77-.74-.22-.26-.79-.74s-.21-.25-.21-.25l-.79-.75s-.17-.36-.17-.36l.18.36.78.75.22.25.78.74.22.26.77.74.24.26.76.74.24.26.76.73.24.27.76.73.24.27.76.73.24.27.76.73.24.27.76.73.24.27.76.73.24.27.76.73.23.26.77.75.23.25.77.75.23.25.77.75.23.25.77.75.23.25.77.74.23.26.77.74.23.26.77.74.23.26.77.74.23.26.77.74.23.26.77.74.23.26.77.74.23.26.77.74.23.26.77.73.23.27.77.73.23.27.77.73.23.27.77.74.23.26.77.74.23.26.77.74.23.26.77.74.23.26.77.74.23.26.77.74.23.25.77.75.23.25.77.75.23.25.77.74.23.26.76.74.37.2c1.54,1,1.19,1.66.48,2.21C124.44,276.25,124.79,275.63,123.25,274.59Zm-45,32.61,1.13,1.12,0,0ZM49.31,278.26h0l1,1.07v0Zm0-5.37-.08.08,1.11-1.14c-.34.35-.69.7-1,1.06ZM79.21,243l0,0,1.1-1.11Zm-1,1,0,0,1.1-1.11Zm-1,1,0,0,1.1-1.11Zm-1,1,0,0,1.1-1.11Zm.11-.11v0h0ZM75.21,247v0l1-1Zm-1,1h0l1.11-1.11Zm-1,1,0,0,1.11-1.11Zm.11-.11,0,0h0ZM72.2,250l0,0,1-1.05C72.92,249.25,72.56,249.6,72.2,250Zm.11-.11,0,0h0ZM71.21,251v0l1-1.05Zm-1,1,0,0,1.1-1.11Zm-1,1,0,0,1.1-1.11Zm-1,1,0,0,1.1-1.11Zm-1,1,0,0,1.1-1.11Zm-1,1,0,0,1.1-1.11Zm-1,1,0,0,1.1-1.11Zm-1,1,0,0,1.1-1.11C65,257.21,64.59,257.59,64.21,258Zm-1,1,0,0,1.1-1.11C64,258.21,63.59,258.59,63.21,259Zm-1,1,0,0,1.11-1.11Zm-1,1h0l1.11-1.12Zm-1,1,0,0,1.11-1.11Zm-1,1,0,0,1.1-1.11Zm-1,1,0,0,1.1-1.11Zm0,23.25,0,0,0,0Zm-1-22.25,0,0,1.1-1.11Zm-1,1,0,0,1.1-1.11Zm-1,1,0,0,1.11-1.11Zm-1,1,0,0,1.11-1.11Zm-1,1,0,0,1.11-1.11Zm-1,1,0,0,1.11-1.11Zm-1,10.25,0,0,0,0Zm0-9.25,0,0,1.11-1.11Zm-1,1v0l1.11-1.11C51,271.2,50.59,271.58,50.22,272Zm1.14,8.37v0l-1.11-1.1Zm1,1v0l-1-1Zm1,1v0l-1.11-1.1Zm1,1,0,0-1.1-1.1Zm1,1v0l-1.11-1.1Zm1,1,0,0-1.1-1.1Zm1,1,0,0-1.1-1.1Zm1,1,0,0-1.11-1.1Zm1,1,0,0-1-1Zm1,1,0,0-1.11-1.1C59.61,288.58,60,289,60.36,289.33Zm1,1h0l-1.1-1.1Zm1,1h0l-1.1-1.11Zm1,1h0l-1.1-1.11Zm1,1h0l-1.1-1.11Zm1,1h0l-1.11-1.11Zm1,1h0l-1.11-1.11Zm-.12-.12,1.12,1.12,0,0-1.11-1.1Zm2.12,2.12h0l-1.11-1.11Zm1,1h0l-1.11-1.11Zm1,1h0l-1.11-1.11Zm1,1h0l-1.11-1.11Zm1,1,0,0-1.11-1.1Zm1,1,0,0-1.11-1.1Zm1,1,0,0-1.11-1.1Zm1,1,0,0-1.11-1.1Zm1,1,0,0-1.11-1.1Zm1,1,0,0-1.11-1.1Zm1,1,0,0-1.11-1.1ZM80.21,242v0c.34-.33.67-.67,1-1Zm1.12-1.13,0,0,0,0Zm-.11.11,1.11-1.11L81.21,241Zm1.09,70.32h0l-1.08-1.08Zm-.1-71.3v0l1-1h0Zm1-1.06h0c.69-1,1.37-2.2,2.27-2C84.6,236.71,83.92,237.87,83.23,238.91ZM85.64,237a1.41,1.41,0,0,1,.41.25A1.41,1.41,0,0,0,85.64,237Zm34.69-35.12L119.19,203h0l1.13-1.14Zm3.92-3.9h0L123.19,199h0Zm5.42,0,1.06,1.05-1.06-1.05Zm33,32.91a2.92,2.92,0,0,1,1.44,1.52,2.92,2.92,0,0,0-1.44-1.52Zm0,0-1.07-1.06h0l1,1Zm-.94-.94,0,0-1.16-1.15h0l1.14,1.14Zm-2.12-2.12h0l1.14,1.14Zm-1-1h0l1.14,1.14Zm-1-1h0l1.14,1.14Zm-1-1h0l1.14,1.14Zm-1-1h0l1.14,1.14Zm-1-1h0l1.14,1.14Zm-1-1h0l1.14,1.14Zm.13.12,0,0-1.15-1.15h0l1.14,1.14Zm-2.14-2.11h0l1.14,1.13Zm.12.11,0,0-1.16-1.14h0l1.14,1.13Zm-1-1,0,0-1.16-1.14h0l1.14,1.13Zm-8.06,38.48Zm4-42.59h0l1.14,1.13,0,0,0,0Zm-1-1h0l1.14,1.13Zm-1-1h0l1.14,1.13Zm-1-1h0l1.14,1.13Zm-1-1h0l1.14,1.13Zm-1-1h0l1.14,1.13Zm.13.11,0,0-1.16-1.14h0l1.15,1.13Zm-2.13-2.11h0l1.14,1.13Zm.13.12,0,0-1.16-1.14h0l1.14,1.13Zm-2.13-2.12h0l1.15,1.13Zm-1-1h0l1.15,1.14Zm-1-1v0l1.14,1.13Zm-1-1v0l1.14,1.13Zm-1-1v0l1.14,1.13Zm-3-3h0l1.14,1.13ZM122.19,200h0l1.13-1.14Zm.14-.15L121.19,201h0l1.13-1.14ZM118.19,204h0l1.13-1.14Zm-1,1h0l1.13-1.14Zm.12-.13,0,0L116.19,206h0l1.13-1.14Zm-1,1,0,0L115.19,207h0l1.13-1.14ZM114.19,208h0l1.13-1.14Zm-1,1h0l1.13-1.14Zm-1,1h0l1.13-1.14Zm-1,1h0l1.14-1.14C112,210.23,111.57,210.61,111.19,211Zm-1,1h0l1.14-1.14Zm.12-.13,0,0L109.19,213h0l1.14-1.14Zm-1,1,0,0L108.19,214h0l1.14-1.14ZM107.19,215v0l1.14-1.14Zm-1,1h0l1.14-1.14Zm-1,1h0l1.13-1.14Zm-1,1h0l1.13-1.14Zm-1,1h0l1.14-1.14C104,218.22,103.57,218.61,103.19,219Zm-1,1h0l1.14-1.14C103,219.22,102.57,219.61,102.19,220Zm-1,1h0l1.14-1.14Zm-1,1h0l1.14-1.14Zm-1,1h0l1.14-1.14Zm-1,1h0l1.13-1.14Zm-1,1h0l1.13-1.14Zm-1,1h0l1.13-1.14Zm-1,1h0l1.13-1.14Zm-1,1h0l1.13-1.14Zm-1,1h0l1.13-1.14Zm-1,1h0l1.13-1.14Zm-1,1h0l1.13-1.14Zm.14-.15-1.06,1.07h0l1.06-1.07Zm35.08,41.73a3.07,3.07,0,0,1-.32-.31A3.07,3.07,0,0,0,126.42,272.57Zm2.34-1.22h0c-.77,1.54-1.46,1.78-2.11,1.38C127.3,273.13,128,272.89,128.76,271.35Zm-.06,0h0l.94-1h0Zm1.94-2h0l-1,1Zm1-1h0l-1,1Zm1-1h0l-1,1Zm1-1h0l-1,1Zm1-1h0l-1,1Zm1-1h0l-1,1Zm1-1h0l-1,1Zm1-1h0l-1,1Zm1-1h0l-1,1Zm1-1h0l-1,1Zm1-1h0l-1,1Zm1-1h0l-1,1Zm1-1h0l-1,1Zm1-1h0l-.95,1Zm1-1h0l-1,1C144,256.09,144.3,255.75,144.63,255.41Zm1-1h0l-1,1Zm1-1h0l-1,1Zm1-1h0l-1,1Zm1-1h0l-1,1Zm1-1h0l-1,1Zm1-1h0l-1,1Zm1-1h0l-1,1Zm1-1h0l-1,1Zm1-1h0l-1,1Zm1-1h0l-1,1Zm1-1h0l-1,1Zm1-1h0l-1,1Zm1-1h0l-1,1Zm1-1h0l-1,1Zm1-1h0l-1,1Zm1-1h0l-1,1Zm1-1h0l-1,1Zm1.13-1.14h0l-1.14,1.16ZM149.7,218l0,0-1.15-1.14h0l1.14,1.13Zm-2.12-2.12h0l1.14,1.13ZM133.71,202l0,0-1.15-1.14h0l1.14,1.13Zm-2.13-2.11h0l1.14,1.13Zm-4-3.24a3.42,3.42,0,0,0-3.26,1.26h0l-.1.09C125.36,196.78,126.47,196.34,127.59,196.61Zm-6.29,4.27,0,0L120.19,202h0l1.13-1.14ZM48.2,274.24c-.74,1.35-.35,2.7,1.13,4l0,0C47.85,276.92,47.47,275.58,48.2,274.24Zm31,34,1.13,1.11h0l-1.11-1.1Zm2.13,2.11h0l-1.11-1.1Z"/><path class="cls-1" d="M544.56,404.55c-14.95-28.61-39.11-42.57-70.83-44.12-4.16-.2-6.09-1.38-7.34-5.35-8.92-28.15-27.48-47.75-54.1-60a7,7,0,0,1-4.05-4.57q-6.81-20.32-13.9-40.55c-2.52-7.21-7.84-9.64-15-7.05-3.12,1.13-6.2,2.38-9.29,3.61-5.86,2.35-11.71,4.73-17.94,7.24,5.53,4.16,7.13,6.37,9,9.51,1.53,2.5-.13,7,2.95,7.55,2.7.45,5.87-1.85,8.82-3a5,5,0,0,0,.91-.41c3.05-1.89,4.39-.73,5.46,2.46q12.43,36.84,25.11,73.58c6.68,19.47,13.37,38.94,20.18,58.77,1.28-1.15,2.26-2,3.21-2.9,32.73-30.6,82.57-26.06,109,10.12,3.12,4.28,5.52,2.93,8.51.51v-5C545.07,404.88,544.68,404.78,544.56,404.55Z"/><path class="cls-1" d="M405.76,446.88c.62-6.1.62-6.1-5.4-6.1H278.42c-2.26,0-4.53.48-5.84-2.42a177.78,177.78,0,0,1-15.2-57.08c-.12-1.28-.37-2.57,1.21-3.43,3.92-2.14,4.48-5.87,4.44-9.88-.07-5.33,0-10.66,0-16,0-10.33-2.35-12.67-12.63-12.67H120.45c-11.16,0-22.33-.07-33.49,0-7.27.06-10.26,3.16-10.32,10.44-.06,5.66,0,11.33,0,17,0,8.39,1.15,10.06,8.8,12.82-3.43,9.52-7,19-10.26,28.57-5.81,17.37-10.93,34.91-12.08,53.36-.21,3.32.61,4.36,4,4.28,9-.22,18-.26,27,0,3.89.12,4.76-.94,4.2-4.79-7.05-48.87,37.76-90.63,86-80.28,37.45,8,61.39,41.16,57.2,79.47-.47,4.33.2,5.67,4.91,5.63,31-.23,62-.12,93-.12,21,0,42-.06,63,.07,3.47,0,4.75-.76,4.12-4.45A53.69,53.69,0,0,1,405.76,446.88Z"/><path class="cls-1" d="M228.74,325.45a86.15,86.15,0,0,0,12.45.71c17.66.07,35.32.15,53-.06,4.16-.05,4.52,1,3.56,4.79-6.12,24.17-12,48.39-17.92,72.62-3.21,13.17,3.79,25.47,16.05,28.44,12.66,3.07,24.34-4.09,27.63-17.26,8.66-34.67,17.16-69.38,25.76-104.06a24.41,24.41,0,0,0-1.42-17,6.77,6.77,0,0,0-6-4.3,141.19,141.19,0,0,1-31.55-7.17,20.08,20.08,0,0,0-6.84-1.08c-12.82.06-25.65-.05-38.48.09-2.79,0-3.87-.68-3.61-3.6.52-5.8.51-11.65,1.25-17.42.44-3.5-.41-5.74-3-8.19a120.76,120.76,0,0,1-31.91-48.82c-3.69-10.6,1.16-21.07,10.94-24.54,10.15-3.61,20.2,1.53,24.16,12.42a75,75,0,0,0,8.45,17.1,40.74,40.74,0,0,0,2-20.41c-3.15-22.22-20.68-31.6-41-22-12.92,6.07-20,16.89-24.66,29.94-11.18,31.51-14.22,63.76-10,96.88C199.8,310.9,210.45,322.68,228.74,325.45Z"/><path class="cls-1" d="M478,389.64a61.74,61.74,0,0,0-61.9,61.92c0,34.5,27.34,61.63,62.42,62C512,513.88,540,485.44,540.08,451,540.14,417.47,512.05,389.67,478,389.64Zm.1,86.37a24.48,24.48,0,1,1,24.3-24.56A24.34,24.34,0,0,1,478.13,476Z"/><path class="cls-1" d="M170,389.64a62.09,62.09,0,0,0-62.22,61.77c-.12,34.43,27.9,62.09,62.93,62.14,33.49.05,60.84-27.9,61-62.36C231.87,417.43,204.07,389.7,170,389.64ZM169.4,476a24.48,24.48,0,1,1,25-24.39A24.45,24.45,0,0,1,169.4,476Z"/><path class="cls-1" d="M248.58,131.36c14.44,8.23,28.76,16.66,43.12,25,12,7,24.07,14.06,36.54,21.34,1.76-6.34,3-12.37,5.14-18.09,1.93-5.24.66-8.31-4.39-10.44-2.57-1.08-4.7-3.25-7.3-4.25-10.09-3.89-13.27-10.82-12.25-21.58,1.12-11.72.26-11.81,12.25-11.81H353c-.09-.87,0-1.26-.17-1.47-18.14-24.91-40.73-40.69-73.45-37-18.6,2.12-28.34,10.37-32.07,28.57-1.61,7.87-1.85,15.83-2.05,23.82C245.15,128.38,246.05,129.93,248.58,131.36Z"/><path class="cls-1" d="M240.15,182.41c-7.91,2.73-11.39,11-8.3,20.13a108.38,108.38,0,0,0,14.71,28.19c23.77,33.28,57.25,49.42,95.12,54.58,9.58.24,16-5.06,16.74-12.37.84-8-3.73-14.28-11.7-16-6.17-1.33-12.47-2.15-18.53-3.86-32.42-9.14-56.72-27.77-69-60.07C255.8,184,248.22,179.63,240.15,182.41Z"/><path class="cls-1" d="M442.16,290c6.52.62,9.45-.92,12.29-6.94,4.07-8.65,4.43-18,4.56-24.85-.43-9.46-1.2-16.4-3.88-22.95-2.9-7.11-6.4-9.08-13.95-8.15-15.4,1.9-27.19,15.95-26.95,32.12C414.47,275,426.84,288.58,442.16,290Z"/><path class="cls-1" d="M313.41,124.09c-1.22,9.48,3.21,14,10.75,17.87,3.77,1.94,4.88,1.22,6-2.26a42.75,42.75,0,0,0,2.37-14.61c-.21-9.65-.17-9.65-9.89-9.65C313.64,115.44,314.51,115.55,313.41,124.09Z"/><path class="cls-1" d="M254.2,139.15c5.82,18.46,26.64,30.48,44.53,26Z"/><path class="cls-1" d="M171.06,228.3l-37.61-37.6-.24-.25a4.72,4.72,0,0,0-6.75.1L85.71,231.29c-.21.21-.26.32-.11.51-.2-.15-.32-.09-.53.12L44.42,272.58a7.68,7.68,0,0,0-.6.68,4.75,4.75,0,0,0,.6,6.31l32.26,32.25,5.5,5.51a4.74,4.74,0,0,0,7,0q20.3-20.3,40.6-40.58c.26-.26.28-.4.13-.61.19.16.31.13.53-.09q20.4-20.43,40.83-40.84a4.67,4.67,0,0,0,1.38-3.25A5,5,0,0,0,171.06,228.3ZM70,286.89h0Zm-.81,0h0Z"/><path class="cls-2" d="M168.67,232.64a4.27,4.27,0,0,1-1.27,3q-18.77,18.75-37.51,37.52c-.24.23-.35.23-.58,0q-20.25-20.26-40.51-40.51c-.24-.24-.22-.35,0-.58q18.72-18.7,37.43-37.42a4.33,4.33,0,0,1,6.2-.09c.08.07.15.15.23.23l34.55,34.54A4.6,4.6,0,0,1,168.67,232.64Zm-39.16,9.93a10.11,10.11,0,1,0-10.13-10.12A10.11,10.11,0,0,0,129.51,242.57Z"/><path class="cls-3" d="M86.25,315a4.51,4.51,0,0,1-3.2-1.39c-1.68-1.7-3.37-3.38-5.06-5.06L48.36,278.92a4.36,4.36,0,0,1-.55-5.8,6.42,6.42,0,0,1,.55-.62L85.7,235.15c.24-.24.35-.27.61,0q20.2,20.24,40.45,40.45c.27.28.3.41,0,.7q-18.66,18.63-37.3,37.28A4.58,4.58,0,0,1,86.25,315Zm24.91-39a10.1,10.1,0,1,0-10.11,10.09A10.12,10.12,0,0,0,111.16,276Zm-29.72-.41A10.1,10.1,0,1,0,71.3,285.66,10.09,10.09,0,0,0,81.44,275.58Z"/><path class="cls-4" d="M129.51,242.57a10.11,10.11,0,1,1,10.1-10A10.09,10.09,0,0,1,129.51,242.57Z"/><path class="cls-4" d="M111.16,276a10.1,10.1,0,1,1-10.06-10.13A10.13,10.13,0,0,1,111.16,276Z"/><path class="cls-4" d="M81.44,275.58a10.1,10.1,0,1,1-10-10.12A10.06,10.06,0,0,1,81.44,275.58Z"/></svg>