<svg id="Layer_1" data-name="Layer 1" xmlns="http://www.w3.org/2000/svg" viewBox="0 0 595.28 573.89"><defs><style>.cls-1{fill:#e41d39;}</style></defs><path class="cls-1" d="M297.38,440.06c-50.45,0-100.9-.5-151.34.17-35.45.47-74.54-25.31-80-70.63-3.12-26,5-49.81,19.46-71.4,14.85-22.12,34.86-38.61,57.54-52.06,28.2-16.72,58.73-27.23,90.78-33.32a349.88,349.88,0,0,1,86-5.23c48.82,2.87,95.3,14.6,137.31,40.77,26.21,16.33,48.62,36.64,62.05,65.12,12.74,27,16.73,55,2.42,82.6C506.91,424.46,483,439.74,450.8,440,399.66,440.32,348.52,440.06,297.38,440.06ZM138.8,269.76c-.33,0-.73-.05-1,.11-18,12.68-33.5,27.82-43.95,47.47-9,17-14,35.07-10.29,54.31,5.77,30.39,31.75,51.72,63,51.77q151.32.22,302.64-.05c21.6-.05,39.5-8.87,52.28-26.67,14-19.58,14.59-41.05,7.33-63.12-9.65-29.31-30.17-49.79-55-66.55a7.08,7.08,0,0,0-4.33-1.07A65,65,0,0,0,415.65,279c-14,10.61-22,24.78-25.64,41.89A24.86,24.86,0,0,1,360.59,340c-13.14-2.81-22.25-15.81-19.76-28.61,5.61-28.77,19.7-52.47,42.62-70.81l5.11-4.12c-7-1.43-13-4.25-18.6-3.57-41.4,5-73,36.11-79.34,77.21-2.23,14.52-14.86,24-28.92,21.76-13.65-2.2-22.88-15.21-20.55-29.45a141.85,141.85,0,0,1,27.43-64.12c3.3-4.32,6.88-8.44,10.33-12.64l-.41-1.37c-11.31,1.55-23.12,1.51-33.84,4.93-34.94,11.14-54.83,36.28-61.73,71.87-3.08,15.89-15,25.18-30.25,22.41-13.93-2.52-22-15.42-19-30.63C135.21,285.11,137.08,277.45,138.8,269.76Zm193.28-43.88c-7.72-.51-15.43-1.15-23.15-1.41a9,9,0,0,0-5.53,1.95c-24.74,20.27-40,46.15-45.17,77.83-1,5.89,1.76,10,6.81,10.78,4.67.69,8.17-2.26,9.23-8.22C277.86,286.86,285.8,269,299,253.47,308.33,242.42,319.61,233.82,332.08,225.88ZM429.68,253c-7-3.08-12.67-5.75-18.51-8a6.37,6.37,0,0,0-4.8.62c-25.92,15-41.89,37.4-48.28,66.61-1.37,6.27,1.51,10.64,6.68,11.45,4.74.75,8.38-2.5,9.85-8.47a101.75,101.75,0,0,1,3.74-12.89C387.67,278.6,404.61,262.62,429.68,253ZM193.39,242.3l-.49-.79c-8.11,3.5-16.3,6.84-24.28,10.6a12.56,12.56,0,0,0-5.35,5.06,116.27,116.27,0,0,0-12.93,39.06c-.92,6.43,1.11,10.12,6.3,10.82s8.69-2.33,9.65-8.37a106.65,106.65,0,0,1,20.15-47.63C188.66,248.06,191.06,245.21,193.39,242.3Z"/><path class="cls-1" d="M313.48,95.67c.11,11.21-2.9,18.55-8.42,24.9-7.86,9.05-8.16,15.5-1.1,24.87,3.17,4.21,3,9-.57,12s-8.32,2.66-12-1c-11.71-11.63-12.13-31.8-.94-44.81,8.42-9.81,8.65-15.1,1.1-25.65-2.84-4-2.47-8.69.92-11.65s8.05-2.73,11.66.64C309.83,80.34,313.48,89.46,313.48,95.67Z"/><path class="cls-1" d="M404.73,123.41c0,8.69-3.11,16.12-8.84,22.56-7.35,8.26-7.62,15.46-1,24.08,3.46,4.47,3.31,9.31-.38,12.43S386,185,382.17,181c-11.2-11.88-11.55-31.28-.79-44,8.75-10.4,9-15.19,1.31-26-2.79-4-2.36-8.73,1.06-11.64s8.07-2.62,11.66.77C401.16,105.44,404.73,114.43,404.73,123.41Z"/><path class="cls-1" d="M191.08,166.39c-.12-8.2,3-15.66,8.67-22.12,7.59-8.59,7.86-15.47,1-24.48-3.24-4.26-3.12-8.93.33-12.07s8.55-2.82,12.38,1.14c11.32,11.69,11.84,31.11,1.2,44.05-9,11-9.26,15-1.37,26.42,2.59,3.78,2.19,8.4-1,11.28a8.23,8.23,0,0,1-11.66-.42A32.25,32.25,0,0,1,191.08,166.39Z"/><path class="cls-1" d="M297.93,406.81c-45.08,0-90.15-.07-135.23,0A107.08,107.08,0,0,1,104,389.75c-5.82-3.69-7.4-8.28-4.38-12.87,2.78-4.25,7.64-4.82,13.17-1.3,16,10.23,33.62,14.68,52.53,14.67q132.64-.08,265.29,0c18.53,0,35.83-4.21,51.64-14.15,5.39-3.39,10.44-2.47,13,2,2.46,4.31.9,8.94-4.2,12.16-16.87,10.67-35.27,16.43-55.24,16.49C389.81,406.89,343.87,406.8,297.93,406.81Z"/></svg>