<svg id="Layer_1" data-name="Layer 1" xmlns="http://www.w3.org/2000/svg" viewBox="0 0 595.28 573.89"><path d="M107.34,246.79c.12-23.31,8.46-46.9,21.43-69.07,9.2-15.73,20-30.11,35.47-40.38,34.59-22.91,70.49-25,107.14-5.9,29.32,15.28,52.28,37.18,65.55,68.14,6.57,15.35,9.73,31.56,12.44,47.92,2.18,13.13,4.43,26.26,7.29,39.25,2.8,12.68,8.7,24,16.8,34.25a35.38,35.38,0,0,1,7.6,28.74,4.64,4.64,0,0,0,1.43,3.69q17.24,13.77,34.76,27.19a7,7,0,0,0,5.09.78c12-2.51,24-3.15,35.86.44,19.41,5.86,32.11,26.45,28.15,45.71-2.57,12.46-11.28,19.25-22.68,23-3.34,1.11-4.51,2.4-4.44,6.12.32,19-14.75,36-33.87,38.79-25.3,3.67-46.81-12.64-49.66-38-.72-6.39-.2-12.91-.42-19.36a4.51,4.51,0,0,0-1.49-3.23q-20-12.78-40.18-25.29a3.62,3.62,0,0,0-2.7-.51c-17.13,6.17-34,3.24-50-3.27-23.38-9.51-46.38-20-69.3-30.6-13.53-6.26-27.17-12.61-39.74-20.55-21.66-13.68-39.75-31.26-52-54.21C111.44,284.56,107.4,268.11,107.34,246.79Zm18.27,2.86-.91.17c1.6,8.66,2.34,17.59,5,25.93,9.86,31.5,32.31,52.79,60,68.2,22.14,12.32,45.7,22.08,68.74,32.74,13.88,6.42,27.77,13,42.93,16,11.53,2.29,23.27,2.53,32.08-6.19a242.91,242.91,0,0,0,25.74-30.35c6.53-9,5.31-16.86-1.58-25.71a102.33,102.33,0,0,1-15-27c-6.83-18.11-8.84-37.23-11.91-56.13-2.27-14-5-27.95-10.83-41-13.23-29.81-36.18-49.73-65.51-62.47-24.38-10.6-48.5-8.71-71.91,3.93-16,8.65-27.34,21.73-36.46,37.13C134.11,204.88,126.05,226.06,125.61,249.65ZM373,369.5l-23.9,28c1.42.92,2.44,1.6,3.49,2.26q18.51,11.64,37,23.27c4.55,2.88,5.76,5.81,4.8,11-.24,1.34-.52,2.69-.65,4.05-.81,8.74-1,17.42,2.67,25.7a23.63,23.63,0,0,0,30.41,12.27c9.33-3.63,17.78-13.6,12.28-28-2.38-6.23,1.18-11.27,7.69-12.55A88.19,88.19,0,0,0,462.5,431c4.39-1.76,6.31-5.62,6.1-10.57A22.84,22.84,0,0,0,451.43,399c-10.24-2.69-20.28-1.05-30.17,1.9a10.81,10.81,0,0,1-10.81-2c-2.59-2.15-5.28-4.18-7.93-6.25Z"/><path d="M225.21,158.91c13.2.16,25.27,4.06,36.59,10.51a9.13,9.13,0,1,1-8.71,16.05c-7-3.6-14.14-6.63-22.08-7.6-12.85-1.57-24,2-34,10.11a14.33,14.33,0,0,1-8,3c-3.55.15-6.19-2.25-7.48-5.76a8.63,8.63,0,0,1,2.12-9.62c8.32-8.43,18.61-13.15,30.09-15.39C217.5,159.49,221.38,159.33,225.21,158.91Z"/><path d="M267.57,195.18a11.07,11.07,0,0,1,11.07-11.24A11.33,11.33,0,0,1,290,195a11.74,11.74,0,0,1-11.2,11.38A11.37,11.37,0,0,1,267.57,195.18Z"/></svg>