<svg id="Layer_1" data-name="Layer 1" xmlns="http://www.w3.org/2000/svg" viewBox="0 0 595.28 573.89"><path d="M318.17,91c5.45.49,10.9,1,16.36,1.47,22.44,1.74,44.61,5.06,66.05,12.16,10.34,3.42,20.39,7.53,28.52,15.16a24.52,24.52,0,0,1,7.73,13.72q18.66,98.66,37.44,197.27c1.68,8.89-3.56,15-10.22,19.74-10.84,7.78-23.44,11.44-36.11,14.85l-4.37,1.22c3.21,2.6,6.18,4.8,8.91,7.27,8.85,8,15.38,17.28,16.4,29.68.79,9.64-2.44,17.95-8.06,25.42-10.27,13.66-24.65,21.62-40,28-22.77,9.48-46.69,14.1-71.14,16.46a329.06,329.06,0,0,1-72.9-1c-25-3.13-49.36-8.73-72-20.18-10.88-5.5-20.94-12.15-28.62-21.89-13.12-16.61-12.4-36.16,2.24-51.54,4.19-4.4,9-8.22,13.75-12.5-5.35-1.56-10.89-3-16.32-4.8-9.74-3.22-19.32-6.82-27.18-13.76-6-5.27-8.34-11.62-6.78-19.72q17.37-90.33,34.48-180.71c.84-4.41,1.68-8.81,2.39-13.24,1.26-7.83,5.87-13.31,12.09-17.72,11.93-8.47,25.58-12.84,39.55-16.22a304,304,0,0,1,62.56-8.46,38.65,38.65,0,0,0,4.75-.72ZM171.23,156.76c-.33,1.28-.63,2.21-.81,3.15q-4.38,22.77-8.71,45.54-11.42,60-22.8,120.1c-1.8,9.56-1.12,10.64,7.76,15.11.56.28,1.12.55,1.69.8,15.95,7.16,32.9,10.79,50,13.43,15.52,2.39,31.18,3.84,46.78,5.73,5.54.68,8.56-1.58,9.26-7.12,3.06-24.38,5.9-48.79,9.31-73.13a48,48,0,0,1,5.51-17.23,33,33,0,0,1,34.88-15.77c14.81,3.16,25.4,14.06,27.46,29q5.18,37.44,9.76,74.95c1.07,8.74,5.1,10.71,11.54,9.11a9.17,9.17,0,0,1,1.49-.14c25.54-1.91,50.85-5.32,75.58-12.19,9.12-2.53,18.17-5.47,25.77-11.53,1.71-1.37,2.91-2.71,2.41-5.33Q439.57,234.49,421,137.73c-.51-2.65-2.23-6-4.41-7.25-6.59-3.92-13.42-7.71-20.62-10.26-24.09-8.56-49.33-11.24-74.64-12.5-29.35-1.45-58.68-.57-87.76,4.25-15.4,2.55-30.64,5.81-44.8,12.67a56.75,56.75,0,0,0-11.29,7.2c-3.69,3-3.7,5.69-.18,8.78a46.56,46.56,0,0,0,9.84,6.69c16.28,8.09,33.85,12,51.7,14.05,18.83,2.11,37.8,3.29,56.73,4A290,290,0,0,0,355,161.61c12.87-2.18,25.58-5.31,38.33-8.16,5.81-1.29,10,.56,11.38,5.42,1.28,4.52-1.39,8.37-7,10.11-23.51,7.3-47.71,10.69-72.17,11.79-17.7.79-35.47.59-53.18.09A296.34,296.34,0,0,1,212.71,173C198.25,169.54,184.12,165.19,171.23,156.76Zm88,218.64c-6,.45-11.21,1.5-16.28,1.09-12.31-1-24.56-2.68-36.84-4-3.18-.35-6.85-1.56-9.5-.46-10.54,4.38-20.26,10.24-27.74,19.19s-8,17.95-1.48,27.47,16.08,15.24,26.16,20.05c26.79,12.76,55.45,17.89,84.76,19.5,35.5,1.95,70.61-.61,104.68-11.79,14.18-4.65,27.68-10.66,39.12-20.6,13.35-11.59,14.33-24.57,2.38-37.3-7-7.48-15.88-12.43-25.16-16.59a6.6,6.6,0,0,0-3.23-.1c-15,1.61-30,3.51-45,4.83-13.47,1.17-23.54-7.18-25.3-20.52q-5-38.22-9.88-76.46c-1.22-9.61-8.27-16.43-17.58-16.83-8.5-.37-16,5.8-18,14.9-.55,2.56-.84,5.17-1.17,7.77-2.85,22.65-5.6,45.31-8.54,68-1.24,9.5,1.24,14.61,9.65,19.29,5.74,3.19,12,3.76,18.35,4.6,4.67.62,7.69,4.37,7.25,8.41-.47,4.35-3.85,7.71-8.45,7.25a95.38,95.38,0,0,1-17.95-3.2A38.18,38.18,0,0,1,259.28,375.4Z"/></svg>