<svg id="Layer_1" data-name="Layer 1" xmlns="http://www.w3.org/2000/svg" viewBox="0 0 595.28 573.89"><defs><style>.cls-1{fill:#e41d39;}</style></defs><path class="cls-1" d="M375.24,77c1.33,2.31,3,4.5,3.92,7,2,5.21,3.75,10.56,5.57,15.86,2,5.94.94,8.17-4.92,10.2-20.69,7.15-41.35,14.38-62.08,21.4-2.6.89-3.42,2-3.4,4.71.13,13.86.06,27.72.06,42.13h4.16c19.84,0,39.67.08,59.5-.06,4.17,0,6.41,1.62,7.67,5.51,2.74,8.41,5.81,16.71,8.54,25.12.78,2.41,1.79,3.41,4.44,3.27a27.12,27.12,0,0,1,8.49.64,16.66,16.66,0,0,1,12.11,18.64,17,17,0,0,1-16.65,14.35c-1.74,0-3.49,0-5.23.09a4.13,4.13,0,0,0-1,.37c-.82,7.75-1.67,15.66-2.52,23.57q-2.83,26.61-5.67,53.23-2.79,26.25-5.55,52.5-2.82,26.61-5.66,53.24c-.86,8.06-1.85,16.12-2.5,24.2-.26,3.29-1.11,6-3.77,8.07H224c-4.77-3.18-3.74-8.43-4.23-12.91-3.23-29.4-6.18-58.83-9.3-88.24S204.16,301,201,271.63c-.9-8.43-1.72-16.87-2.64-25.9-2.11,0-4.17,0-6.23,0A16.86,16.86,0,0,1,192,212c7.42-.12,7.41-.12,9.81-7.09s5-14.09,7.28-21.2c1.25-3.9,3.48-5.56,7.66-5.53,19.71.14,39.41.06,59.12.06h4.36c.08-1.6.19-2.92.19-4.25q0-21.56,0-43.11c0-15.05,6.8-24.68,21-29.64q33.66-11.72,67.35-23.33a18.9,18.9,0,0,0,2-.93ZM363.39,449.62Q374.19,347.76,385,245.91H209.78q10.82,102,21.61,203.71Zm12.31-260H219.11c-2.6,7.5-5.25,14.87-7.72,22.31-4.31,13-3.4,11.19-15.82,11.28-6.06,0-8.89,1.77-8.94,5.58s2.84,5.7,8.81,5.7h204c5.92,0,8.85-1.93,8.74-5.77s-2.89-5.5-8.63-5.5H230a19.41,19.41,0,0,1-3.74-.09,5.61,5.61,0,0,1,0-11A19.31,19.31,0,0,1,230,212H383.36C380.71,204.28,378.22,197,375.7,189.64Zm-72.86-11.55v-4.45q0-21.55,0-43.11c0-4.91,1-6.29,5.72-7.9q24.85-8.59,49.72-17.19c4.78-1.65,9.53-3.36,14.54-5.13l-3.54-10.26c-1.68.49-3,.82-4.26,1.26l-59.56,20.63c-9.93,3.44-13.51,8.41-13.53,18.88q0,21.75,0,43.49c0,1.21.12,2.42.19,3.78Z"/></svg>