<svg id="Layer_1" data-name="Layer 1" xmlns="http://www.w3.org/2000/svg" viewBox="0 0 595.28 573.89"><path d="M544.32,283.63a25.85,25.85,0,0,0-.6,3c-2.69,29.3-13.59,55.39-31,78.9-15.15,20.49-33.92,37.1-55.24,50.92A258,258,0,0,1,416.34,438c-1.06.44-1.85.89-1.94,2.2-.39,6.34-4.15,10.52-9.1,13.84-6.72,4.52-14.24,7.26-21.94,9.55-13.59,4-27.54,6.17-41.58,7.91-14.84,1.85-29.74,1.45-44.63,1.54-15.66.08-31.31.09-46.89-2-16.53-2.18-32.95-4.79-48.56-11a43.4,43.4,0,0,1-13.8-8.08c-3.1-2.85-5.13-6.25-5.08-10.58,0-1.72-.72-2.48-2.3-3.13a250.68,250.68,0,0,1-54.63-30.65c-22-16.4-40.58-35.95-54.19-60a153,153,0,0,1-18.94-56.63c-1.06-8.35-1-16.7-1.07-25.06-.07-8.85,3.4-15.43,11.8-19,1-.42,1.93-.95,2.91-1.38,9.62-4.25,19.78-6.72,30-9,.42-.1.84-.22,1.46-.39-.63-2.33-1.27-4.6-1.86-6.89-.51-2-.91-4.06-1.47-6.06a10.11,10.11,0,0,0-1.18-2.54c-7.3-11.86-14.73-23.65-21.9-35.59a58.61,58.61,0,0,1-4.75-10.67c-1.83-5.22-.06-9,5-11.27,7.07-3.18,14.6-3.78,22.22-3.59,3.66.08,7.36.26,10.48,2.57,4.74,3.49,8.88,7.56,11,13.18a26.84,26.84,0,0,1,1,6.31,33.84,33.84,0,0,1,0,3.64,47.59,47.59,0,0,0,15.16,0c5.91-.86,11.76-2.16,17.65-3.22a2.36,2.36,0,0,0,2-1.85,65.28,65.28,0,0,1,3.17-8.07c1.34-2.73,3.47-4.65,6.83-4.57a3.27,3.27,0,0,0,1.09-.26l7.68-2.68c-.46-3.77-1.18-7.69-1.37-11.62-.54-11,1.92-21.28,8.48-30.36,3.76-5.19,8.63-9,14.94-10.2a15.71,15.71,0,0,1,14.09,4.31,33.1,33.1,0,0,1,5.7,7,165.43,165.43,0,0,0,18.16,24.64,11.54,11.54,0,0,1,.85,1.2c1.51-1.52,2.68-2.92,4.07-4.06a50,50,0,0,1,18.7-9.79,84.5,84.5,0,0,1,29.2-2.92c3.13.24,6.17,1.59,9.29,2.45.36-1,.71-2.28,1.24-3.46a8.38,8.38,0,0,1,9.12-4.93,14.2,14.2,0,0,1,8.65,4.5c5.29,5.59,10.92,10.84,16.48,16.17a2.91,2.91,0,0,0,2.29.65,99.31,99.31,0,0,1,23-3.05c6.93-.07,13.86-.42,20.76-.18a137.35,137.35,0,0,1,16.55,1.73c6.55,1,11.55,5.14,16.37,9.35A144.93,144.93,0,0,1,426,177.43c1,1.28,1.71,2.77,2.83,4.62,3.32-3.28,6.76-6.32,9.8-9.73a136.5,136.5,0,0,0,17.73-26.07c.78-1.43,1.24-3,2-4.46,3.87-6.92,11.76-7.53,16.66-1.28,3.38,4.3,4.76,9.43,5.58,14.7a59.93,59.93,0,0,1-3.37,31.6c-.14.34-.23.71-.34,1.07,0,.05,0,.11.08.34,1.4.22,2.9.38,4.35.7,11.72,2.58,20.15,9.42,25,20.28,1.73,3.9,2.37,8.36,3,12.64.81,5.35,1.16,10.77,1.6,16.17a1.65,1.65,0,0,0,1.47,1.76c7.85,2.18,15.67,4.47,22.68,8.75a32.85,32.85,0,0,1,5.83,4.77c2.5,2.47,2.79,5.81,3,9.12a10.39,10.39,0,0,0,.45,1.89ZM60.11,271.39c0,1,0,1.66,0,2.33.32,5.29.48,10.59,1,15.86a132,132,0,0,0,10.08,38.23c10.55,24.89,26.87,45.52,47.16,63.11,21.09,18.28,45,31.89,71,42a298,298,0,0,0,96.44,19.66,306.5,306.5,0,0,0,75.64-6.31c32.94-6.94,63.88-18.84,92.16-37.25,24-15.61,44.46-34.83,59.78-59.21,14.73-23.46,22.58-49,22.58-76.76,0-.47-.07-.94-.11-1.55l-.85.35c-5.58,2.31-11,5.06-16.75,6.85-20.61,6.43-41.89,9.53-63.25,12-15.65,1.85-31.35,3.27-47.06,4.54q-19.07,1.54-38.18,2.27c-18.55.7-37.1,1.14-55.65,1.51-10.29.2-20.58.17-30.87,0-33.14-.48-66.26-1.29-99.3-4.24-8.92-.8-17.87-1.31-26.78-2.23-18.5-1.91-37-4.23-55.21-7.92C87.65,281.78,73.42,278.7,60.11,271.39Zm442.54-35.23c-.44-3.32-1.07-9.47-2.15-15.53-.64-3.62-1.34-7.49-3.15-10.58-10.17-17.36-30.89-16.1-42-6a42.49,42.49,0,0,0-4.37,4.72,71.72,71.72,0,0,1-12.45,12.11c-10.49,7.91-22.08,13.85-34.18,18.83-12.91,5.32-20,20.76-15.45,34a5.22,5.22,0,0,0,5.25,3.64c3.28-.16,6.56-.26,9.83-.55,16.72-1.44,33.45-2.78,50.14-4.45A342.17,342.17,0,0,0,494.06,266a4.57,4.57,0,0,0,3.42-2.75C501.24,255.57,502.49,247.42,502.65,236.16Zm-80.4-22.52a20.25,20.25,0,0,0,1.29-3.67,33,33,0,0,0-5.35-23.81c-5.33-8.12-12.18-15.1-19.51-21.55a29.16,29.16,0,0,0-17.62-7.29,215.23,215.23,0,0,0-32.91-.23,78,78,0,0,0-19.32,3.39c-3.37,1.12-6.16,3-7.67,6.28a10.15,10.15,0,0,0-1,5.09c.08.75,1.84,1.46,2.93,2,11.92,5.72,19.58,15,22.38,27.86a18.27,18.27,0,0,0,6.55,10.95,84.77,84.77,0,0,0,17.47,11.87,2.52,2.52,0,0,0,3-.17c2.27-1.7,4.58-3.34,6.85-5,8.9-6.66,18.74-10.06,29.94-8.33C413.47,211.63,417.62,212.68,422.25,213.64Zm-143,66.23c5.17,0,13.82.05,22.46,0a11.39,11.39,0,0,0,4.52-1,62.23,62.23,0,0,0,20.37-15.11c8.21-9.11,13.16-19.67,13.43-32.07.16-7.19-1.17-14.09-5.87-19.9-4.08-5-9.08-5.67-14.26-1.83a23.87,23.87,0,0,0-3,2.64A156.57,156.57,0,0,1,280.57,241c-15.76,8.88-32.44,14.37-50.83,13.64a25.12,25.12,0,0,0-7.58,1.25c-2.21.63-2.75,1.87-1.92,3.91a14,14,0,0,0,2.63,4.28c5.94,6.25,13.4,10.2,21.22,13.52a17,17,0,0,0,5.75,1.55C258.48,279.49,267.13,279.6,279.25,279.87Zm57.16-77.67.32-.29c-.47-.85-.9-1.72-1.42-2.54C329.89,191,322,186,312.53,183.62c-6.27-1.58-9.95-5-10.91-11.58-1.37-9.3-6.45-16.65-13-23.18a14.07,14.07,0,0,0-8.23-4.23,54.81,54.81,0,0,0-8.84-.72c-9.65.24-18.71,3-27.63,6.54-4.61,1.83-7.35,5.15-9.26,9.41-6.33,14.16-.79,28.85,9.49,37.76a11.62,11.62,0,0,0,5.08,2.27,258.5,258.5,0,0,0,41.78,5.4c5.35.24,10.73.86,15.57,3.44,1.3.7,1.89.39,2.86-.47,2.72-2.42,5.34-5.09,8.44-6.91,5.57-3.28,11.42-3.12,17.1.12C335.47,201.73,335.94,202,336.41,202.2Zm-74.69,23.11c-.27-4.55,1.09-8.37,2.49-12.21.41-1.12-.17-2.11-1.71-2.3-3.13-.4-6.22-1-9.34-1.5-7.15-1.05-13.83-3-18.45-9.16a21.71,21.71,0,0,0-2.28-2.76,6.45,6.45,0,0,0-2.32-1.32c-1.77-.61-3.86-.66-5.35-1.65a126.38,126.38,0,0,1-13.19-9.78,13.66,13.66,0,0,0-7.6-3.7A41.74,41.74,0,0,1,189,176c-1-.54-2.05-1-3.07-1.47a16.19,16.19,0,0,0-7.67-1.34c-5.34.09-10.5.63-15.42,2.79a3.18,3.18,0,0,0-1.58,1.32c-2.81,6-3.89,12.26-2.07,18.76,3.34,11.94,10.95,20.58,21.53,26.63a44.91,44.91,0,0,1,12.55,10.19c1.16,1.39,2.29,2.8,3.61,4.43,2.41-3,4.75-5.8,6.95-8.69,7-9.14,16.21-14.15,27.62-14.7,9.8-.47,18.56,3,26.57,8.4C259.18,223.11,260.23,224.1,261.72,225.31ZM225.54,185a6.78,6.78,0,0,0-.06-.87,39.46,39.46,0,0,1,.72-25.79,2.48,2.48,0,0,0-.49-2.08,173.4,173.4,0,0,1-20.86-27.8,26.14,26.14,0,0,0-4.36-5.41,7.94,7.94,0,0,0-8.1-1.85,14.45,14.45,0,0,0-7.2,5c-9,11.35-9.77,24.16-6.37,37.63a1.49,1.49,0,0,0,1.15.86c4.46-.34,8.25,1.61,12,3.52a43.86,43.86,0,0,0,13.71,4.6c3.61.51,7.13,1.52,10,4.15,2.63,2.44,5.41,4.71,8.15,7A12.33,12.33,0,0,0,225.54,185ZM215.47,278c-3.84-8.58-4.49-12.71-4-19.49.4-5.77,3.44-9.37,8.72-10.76,3.85-1,7.93-1.16,11.93-1.53s8.3-.2,12.35-.9c4.88-.85,9.63-2.41,14.46-3.57,1.37-.33,1.65-1.16,1.18-2.18-1.14-2.5-2-5.31-3.75-7.31-5.86-6.68-13.85-9.53-22.37-10-9.92-.52-17.88,3.88-23.87,11.88a115.68,115.68,0,0,1-18.92,20.32c-2.47,2-5.13,3.82-8,5.92,3.06,5.22,6.09,10.44,9.19,15.62a2.18,2.18,0,0,0,1.54.78c4.28.31,8.56.55,12.85.79C209.61,277.76,212.43,277.87,215.47,278Zm204.88-55-.09-.74c-3.6-1.23-7.12-2.65-11.09-2.47a33.28,33.28,0,0,0-13.92,3.81,42.48,42.48,0,0,0-13.1,10.7,12,12,0,0,1-13.34,3.59,36.86,36.86,0,0,0-16.25-1.61c-4.24.42-4.24.48-5.11,4.6,0,.06,0,.12-.05.18-2.54,12.32-8.73,22.59-17.58,31.36-.36.37-.69.76-1.32,1.46,17.68.64,34.24-2.85,50.55-8.24.1-1,.2-2.13.34-3.25s.29-2.25.5-3.37c2.5-12.74,9.15-22.14,21.44-27.26C407.77,229.13,414,226,420.35,223.05Zm-291,48c-1-4.45.48-7.73,2.56-10.83,4.86-7.25,11.44-12.63,18.89-17a8.43,8.43,0,0,1,3.94-1.13,56.12,56.12,0,0,1,8.3.36c6.23.78,11.4,3.48,14.95,8.86.33.51.75,1,1.34,1.7.47-.73,1.1-1.24,1-1.66-.7-5.25-1.74-10.54-6-14.14-6.67-5.69-15-7.63-23.34-7.15-9.09.52-18,2.85-26.7,5.8a68.24,68.24,0,0,0-8.77,3.72c-3.12,1.58-5.11,4.36-6.93,7.28-3.39,5.39-6.86,10.72-10.29,16.08-.35.55-.6,1.18-1.13,2.24Zm35.15-50c-8.24-8.64-13.88-18.25-14.66-30.34-11.53,2.76-23,4.49-34.73,3.2a165.34,165.34,0,0,0-3.49,34c6.43-1.95,12.59-4.18,18.93-5.65,8-1.86,16-4.23,24.42-2.87C158,219.75,161,220.34,164.52,221ZM78.27,250.7l-.26-.51a43.18,43.18,0,0,0-5.41,2C69,254,65.49,256,62.13,258.13c-1.85,1.19-1.79,2.32-.09,3.82a23.93,23.93,0,0,0,4.75,3.37c8.84,4.65,18.42,7.21,28.1,9.18,12,2.42,24,4.51,36.07,6.41,8.34,1.32,16.75,2.21,25.15,3.08,8.91.93,17.83,1.7,26.76,2.38,10.95.82,21.9,1.58,32.86,2.18,10,.55,20.05.93,30.08,1.24,12.68.4,25.36.69,38,.94,4.71.1,9.42-.08,14.12-.08,6.33,0,12.65.13,19,.06,5.86-.07,11.73-.31,17.59-.52,15.7-.54,31.42-.95,47.11-1.71,12.16-.59,24.3-1.55,36.44-2.52,9.8-.78,19.62-1.58,29.37-2.83q20.54-2.62,41-6a185.25,185.25,0,0,0,32.75-8.25c3.88-1.41,7.71-2.94,11-5.61-3.53-.18-7-.19-10.52-.15a1.45,1.45,0,0,0-.93.54c-2.59,2.93-6,4.58-9.54,5.93-13,4.93-26.63,7.12-40.28,9-12.61,1.73-25.29,3.1-38,4.25q-20.07,1.85-40.2,2.94c-13.61.76-27.24,1.24-40.87,1.65-12.42.37-24.85.56-37.27.7-7.77.09-15.54-.1-23.31-.11-5.58,0-11.17.15-16.75.1-7.64-.06-15.28-.11-22.92-.41-19.48-.78-39-1.55-58.45-2.59q-18.42-1-36.79-2.81c-12.11-1.21-24.21-2.58-36.21-4.51-10.05-1.62-20-4-29.9-6.35a33.39,33.39,0,0,1-13.14-6c-4.74-3.71-5-9-.63-13.15C77.08,251.74,77.68,251.23,78.27,250.7ZM191.68,443l-.43.51a48.63,48.63,0,0,0,4.66,4.22c6,4.17,12.83,6.41,19.75,8.35,19.17,5.36,38.83,7.54,58.63,8.68a411.22,411.22,0,0,0,46.18.07,299.92,299.92,0,0,0,50.21-6.51c9.41-2.14,18.68-4.78,27.2-9.48a19.73,19.73,0,0,0,7.32-6.14Q298,479.71,191.68,443ZM96.94,211.16a3.3,3.3,0,0,0,.51-.66c2.87-8.47,5.55-17,6.45-26,.36-3.58.56-7.24-1-10.62-1.45-3.2-3.49-5.74-7.54-5.85a55.86,55.86,0,0,0-17.24,1.71C74,171,73.93,171.05,75.72,175,81.5,187.71,89.35,199.23,96.94,211.16Zm79.66,64.5c-3-7.27-6-14.05-10.8-19.83a19,19,0,0,0-3.44-3.21,8.86,8.86,0,0,0-11.1,0,22.66,22.66,0,0,0-3.56,2.78q-4.83,5.16-9.41,10.53c-.4.46-.45,2-.14,2.17,3.43,2.19,6.82,4.57,11,5.06,4.5.52,9,1,13.53,1.39S171.73,275.26,176.6,275.66ZM458.16,160.87l-.59-.13c-.93,1.4-1.86,2.81-2.81,4.2-6.26,9.15-13.06,17.81-22.27,24.24-1,.7-.77,1.38-.53,2.28a37.52,37.52,0,0,1,.88,17.21c-.21,1.07-.46,2.14-.74,3.46a4.25,4.25,0,0,0,.92-.49c5.07-5.18,10.24-10.26,15.15-15.59,2.86-3.11,5.23-6.61,5.92-11,.49-3.11,1.34-6.16,1.85-9.27C456.75,170.83,457.43,165.85,458.16,160.87ZM301.7,215.55c-9.59-2.92-19.23-1.66-28.83-3.37-1,4.44-2,8.63-2.83,12.85s-1.33,8.4-2.06,13.06A143.15,143.15,0,0,0,301.7,215.55Zm159.83-25c2.89-.45,5.32-1,6.74-4.14A51.53,51.53,0,0,0,471.78,154c-.62-3-.95-6.25-3.55-8.46a10.37,10.37,0,0,0-1.66-.95,7,7,0,0,0-.7,2.26c.11,1.76.63,3.49.69,5.24a107.56,107.56,0,0,1-2.08,23.47C463.58,180.51,462.54,185.47,461.53,190.57Zm-148-44.38c-.08.82-.1,1.36-.17,1.89-.46,3.24-.69,6.53-1.46,9.69-.53,2.14,0,3.85.9,6.15a24.43,24.43,0,0,1,7.67-11.3Zm-8.91.77.74-.16c-.69-3.47-1.33-7-2.11-10.4-.09-.41-.85-.78-1.38-1-.29-.09-1,.28-1,.44,0,2.27-.39,4.68.26,6.77C301.62,144.3,303.42,145.54,304.65,147ZM509.11,255.63,507,262.48l7.44-3.85Zm19.34-1.44-11.2-4.4C520,253.53,523.25,256,528.45,254.19ZM191,243.43c-2.06-2.5-4-4.86-5.93-7.22l-.34.26,3.55,9.45ZM86,261.09l3.22-5.88-.43-.39-7.12,3.67ZM380.56,278a5.47,5.47,0,0,0,.12-1.56c-.2-.65-.49-1.7-.88-1.77a2.79,2.79,0,0,0-2.05.74,21.35,21.35,0,0,0-2.17,2.91Z"/></svg>