<svg id="Layer_1" data-name="Layer 1" xmlns="http://www.w3.org/2000/svg" viewBox="0 0 595.28 573.89"><path d="M284,64h11.18c11.3,2.49,19.46,9.78,27.23,17.76C327.55,87,333,92,338.18,97.09c3.79,3.75,8.06,5,13.43,4.15,11.54-1.82,23.13-3.47,34.75-4.61a34.14,34.14,0,0,1,36.48,25.75c2.72,11.22,4.59,22.67,6.36,34.09,1,6.51,3.9,10.94,9.87,13.86,8.94,4.39,17.69,9.17,26.44,13.95,18.95,10.34,25.24,29.78,16,49.32q-6.68,14.06-13.66,28a15.07,15.07,0,0,0,0,14.49q7,13.9,13.67,28c9.28,19.54,3,39-16,49.32-9.09,5-18.23,9.87-27.47,14.55a14.9,14.9,0,0,0-8.54,11.68c-1.59,9.71-3.58,19.36-4.95,29.1-3,21.39-20.65,34.82-40.18,32.25-9.34-1.24-18.77-2.1-28-4-8.61-1.74-15.55-.47-21.42,6.58-3.73,4.47-8.45,8.1-12.52,12.31-7.75,8-15.93,15.28-27.23,17.77H284c-11.31-2.49-19.46-9.79-27.24-17.76-5.2-5.34-10.69-10.4-16-15.61a13.42,13.42,0,0,0-12-4c-11.57,1.68-23.13,3.36-34.73,4.8-17,2.1-33.74-9.07-37.7-25.73-2.67-11.24-4.57-22.68-6.34-34.1-1-6.5-3.86-11-9.84-13.88-8.94-4.38-17.69-9.17-26.44-13.94C94.84,343,88.51,323.49,97.76,304q6.67-14,13.66-27.95a15,15,0,0,0,0-14.48q-7-13.89-13.66-28c-9.27-19.48-3-39,15.94-49.34,9.1-5,18.23-9.87,27.48-14.54a14.93,14.93,0,0,0,8.54-11.69c1.59-9.71,3.58-19.36,4.94-29.1,3-21.39,20.74-34.83,40.19-32.25,9.34,1.25,18.76,2.14,28,4,8.59,1.72,15.55.44,21.41-6.6,3.73-4.48,8.45-8.11,12.52-12.32C264.54,73.76,272.72,66.49,284,64ZM230.24,412.11c9.11.51,16.79,2.25,22.87,7.73,9,8.11,17.67,16.56,26.41,24.94,7.08,6.78,13.12,6.85,20.11.07q11.31-11,22.66-22c7.77-7.51,17-11.55,27.82-10.49,12,1.19,23.95,3.19,35.91,5,7.39,1.1,13.26-2.82,14.61-10.16,1.68-9.16,3.61-18.29,4.74-27.52,2-16,9.51-27.51,24.37-34.32,8.2-3.76,16-8.39,24-12.65,8.52-4.55,10.37-10.13,6.19-18.79-4.46-9.22-8.87-18.46-13.46-27.62-5.84-11.65-5.88-23.21-.05-34.87,4.51-9,8.9-18.15,13.31-27.24s2.68-14.65-6.24-19.4q-13.71-7.31-27.46-14.57c-11.23-6-17.71-15.29-19.77-27.85-1.75-10.62-3.67-21.22-5.59-31.82-1.28-7.07-6.91-11.36-13.71-10.41-10.12,1.41-20.27,2.74-30.34,4.47-14,2.4-25.94-1.15-36-11.43-6.79-7-13.94-13.56-20.91-20.33s-13.13-6.86-20.1-.1l-22.66,22c-7.76,7.51-17,11.56-27.81,10.5-12-1.18-24-3.19-35.92-5-7.39-1.09-13.27,2.81-14.62,10.15-1.68,9.15-3.61,18.28-4.75,27.51-2,16-9.48,27.53-24.35,34.34-8.08,3.69-15.75,8.28-23.61,12.47-9,4.81-10.82,10.24-6.42,19.33s8.59,18,13.12,26.89c6.07,11.9,6.12,23.66.08,35.58-4.51,8.9-8.79,17.91-13.15,26.88-4.45,9.18-2.68,14.67,6.23,19.41q13.71,7.32,27.46,14.57c11,5.8,17.48,14.86,19.67,27.05,1.62,9,3.6,18,4.67,27.12,1.47,12.63,5.87,18,21.45,15.05C209.69,414.56,220.56,413.47,230.24,412.11Z"/><path d="M379.78,191.26c-1.08,2.35-2.07,4.76-3.29,7a12.77,12.77,0,0,1-2.4,2.66q-76.17,76.32-152.33,152.65c-2.81,2.82-5.82,5-10,4.92a11.78,11.78,0,0,1-9.36-18.77,24.13,24.13,0,0,1,2.37-2.69q76.44-76.62,152.89-153.22c2.72-2.72,5.64-4.79,9.71-4.78C374.05,179.1,379.2,184.22,379.78,191.26Z"/><path d="M243,249.18c-23.07.61-43-18.77-43.63-42.31s18.39-43.86,41.47-44.4c23.6-.55,43.79,18.19,44.93,40.64C287,227.61,267.42,248.88,243,249.18Zm18.94-43.48a19.44,19.44,0,1,0-38.88.21,19.44,19.44,0,1,0,38.88-.21Z"/><path d="M379.94,331.76a43.17,43.17,0,1,1-86.34.1c0-24,19.52-43.55,43.32-43.4A43.23,43.23,0,0,1,379.94,331.76Zm-62.6-.07a19.44,19.44,0,1,0,38.87.21,19.44,19.44,0,1,0-38.87-.21Z"/></svg>