<svg id="Layer_1" data-name="Layer 1" xmlns="http://www.w3.org/2000/svg" viewBox="0 0 595.28 573.89"><path d="M106.24,238.07c2.22-5.7,3.76-11.65,7.44-16.75a40.88,40.88,0,0,1,52.13-12.75,6.74,6.74,0,0,0,5.93.39Q298,163.87,424.33,118.9q26.44-9.44,52.88-19c3.6-1.31,7-1.88,10,1.15s2.35,6.27,1.16,9.74q-53.24,155.51-106.47,311a7.57,7.57,0,0,0-.27,5.31c8.52,24.62-5.88,49.34-31.49,54.17-.28,0-.5.42-.75.65H336c-3.18-1.18-6.39-2.28-9.53-3.57a360.56,360.56,0,0,1-37.88-18.15q-112-62.07-168.94-176.78a283.44,283.44,0,0,1-13.37-31.22ZM469.58,118.88l-2,.68-91.4,32.51c-5.64,2-5.65,2-3.28,7.7a19.89,19.89,0,0,1,1.11,2.76,7.63,7.63,0,0,1-4.8,9.34c-3.66,1.28-7.46-.35-9.31-4.12a32.85,32.85,0,0,1-2.25-5.51c-.77-2.75-2.14-2.87-4.61-2q-43,15.47-86.16,30.68c-2.94,1-3,1.93-1.74,4.6,6.13,13.17,4.86,25.86-4.53,36.94-9.15,10.78-21.11,14.67-35,10.83-13.27-3.68-21.28-12.63-24.43-26-.27-1.15.13-3-2.33-2-5.88,2.25-11.85,4.26-17.9,6.42a75.13,75.13,0,0,1,5.48,10.9q46,105.54,147.88,159.2c11.74,6.15,24.63,9.94,35.47,17.74.18-.09.33-.12.35-.19Q389.1,354.13,408,298.91c.64-1.86-.17-2.42-1.29-3.27q-9.21-7-18.37-14.1c-4.12-3.2-4.93-7.41-2.24-11,2.84-3.81,7.13-4.21,11.47-.94,4.58,3.44,9.15,6.9,13.61,10.49,1.92,1.54,2.7,1.81,3.63-1,4-12.37,8.28-24.67,12.61-36.94.86-2.45.91-3.41-2.08-4.17a33.9,33.9,0,0,1-23.77-42.87c6.1-19.55,27-29.2,46.15-21.25,1.66.68,2.66,1.36,3.48-1.07C457.19,155,463.28,137.31,469.58,118.88ZM149.75,219.25c-21.42-.05-33.63,18.69-26.11,36.54,26.79,63.65,67.3,116.78,122.16,158.85a388.59,388.59,0,0,0,86.61,49.95c17.84,7.48,36.73-4.67,36.54-23.6-.12-12.42-6.91-20.12-18-24.85C288,389.36,237.85,347.23,200.17,290.22a334.57,334.57,0,0,1-28.88-54.58C166.85,225.11,158.71,219.69,149.75,219.25Zm103.92-9.67a20.09,20.09,0,0,0-3.3-9.7c-1.06-1.67-2.1-2.28-4.19-1.51q-14.12,5.26-28.35,10.17c-1.73.6-2.35,1.35-2.22,3.18a19.14,19.14,0,0,0,19.5,17.77C245.37,229.18,253.53,221,253.67,209.58Zm161.56-4.35a19.08,19.08,0,0,0,15.37,18.52c2.13.41,3.3,0,4-2.35q4.74-14.67,9.92-29.19c.78-2.18.18-3-1.6-4C430.42,181.5,415.19,190.82,415.23,205.23Z"/><path d="M335.92,262.61c-18.39.08-33.9-15.34-34.14-34s15.55-34.55,34.38-34.43a34.44,34.44,0,0,1,34,34.11C370.2,247,354.66,262.53,335.92,262.61Zm18.89-34.35a18.86,18.86,0,1,0-18.73,19A18.61,18.61,0,0,0,354.81,228.26Z"/><path d="M300,321.43a34.05,34.05,0,1,1,34,34.11A33.85,33.85,0,0,1,300,321.43Zm33.9-19c-10.25,0-18.92,8.78-18.9,19.15a19,19,0,1,0,18.9-19.15Z"/><path d="M267.55,253.77c6.48.88,14.36,1.83,22.2,3.08,3.93.63,6.21,4.21,5.8,8.27-.37,3.66-3.52,6.87-7.34,6.5-8.38-.82-16.75-1.92-25.06-3.3-3.74-.62-6.13-4.68-5.58-8.15C258.23,256,261.46,253.56,267.55,253.77Z"/><path d="M277.57,311.83c0,4.88-2.78,8.13-6.56,8.54-4.22.45-7.64-1.94-8.35-6.16-.87-5.14-1.61-10.3-2.17-15.48a7.75,7.75,0,0,1,6.69-8.81c3.86-.54,7.5,2.36,8.24,6.84C276.28,302,276.93,307.32,277.57,311.83Z"/><path d="M176.65,284.32c-.05,4-1.87,6.36-5.06,7.55a7.17,7.17,0,0,1-8.77-3.13c-2-3.27-3.85-6.67-5.63-10.08-5.17-9.9-10-20-14.3-30.28-2.15-5.22-.81-9.37,3.62-11.2,4.22-1.74,8.13.15,10.29,5.26a368.11,368.11,0,0,0,18.33,37.43C176,281.39,176.83,282.93,176.65,284.32Z"/><path d="M180.86,311.31a7.93,7.93,0,0,1-7.74-7.54,7.8,7.8,0,0,1,7.52-7.73,7.64,7.64,0,1,1,.22,15.27Z"/></svg>