<svg id="Layer_1" data-name="Layer 1" xmlns="http://www.w3.org/2000/svg" viewBox="0 0 595.28 573.89"><defs><style>.cls-1{fill:#e41d39;}</style></defs><path class="cls-1" d="M77.87,220.4c2.43-6.26,4.09-13,7.46-18.69,6.59-11.16,17.12-18.51,27.84-25.26,21.24-13.39,44.7-19.55,69.64-19.68a123.07,123.07,0,0,1,43.79,7.31,14,14,0,0,0,10,0q44.61-14.93,89,.79a14.42,14.42,0,0,0,10.27,0c40.31-13.73,79-10.18,115.65,11.75,10.28,6.15,19.94,13.45,26.79,23.59,11.1,16.42,10.95,33.33,1.39,50.41-.52.93-1.08,1.83-1.61,2.75a4.15,4.15,0,0,0-.17.62c4.34,5,8.19,10.64,7.05,17.76-.64,4.06-2.47,8-4.26,11.77-.86,1.81-1.58,2.93-.3,4.93,2.68,4.19,2.72,8.67.86,13.36a6.51,6.51,0,0,0,.47,4.92c6,10.75,4.82,30.06-2.7,39A25.38,25.38,0,0,1,460,355c-.35,6.26.1,12.46-1.17,18.28-4.18,19.29-21.34,33.75-41,35.18-4.77.34-9.57.54-14.35.54Q279.73,409,156,409c-14.76,0-28.08-3.78-38.78-14.6a44.87,44.87,0,0,1-11.82-21.81,6.08,6.08,0,0,1,4-7.31c3.19-.95,6,.46,7.46,3.67,1.91,4.36,3.26,9.09,5.86,13,6.07,9.09,15.14,13.46,25.87,14.5,2.38.23,4.78.22,7.18.22q126.75,0,253.5.06c12,0,22.69-2.87,30.8-12.19,6.68-7.68,9.14-16.58,6.93-26.73-.52-2.42-1.63-3.06-3.8-2.87-1.06.1-2.13,0-3.2,0q-165.87,0-331.75.06c-9.17,0-17-2.38-23-9.6-5.51-6.62-6.53-14.39-5.69-22.57.34-3.26,2.57-4.91,5.74-5s5.28,1.84,5.88,4.91a40.79,40.79,0,0,1,.28,6.37,13.91,13.91,0,0,0,13.37,13.71c.67,0,1.34,0,2,0q175.46,0,350.91,0c6.11,0,11.32-1.88,13.8-7.58,3-6.92,2.49-14.26.3-21.42-.57-1.86-1.68-2.81-3.93-2-9.55,3.57-19.3,3.2-29,.93-6.19-1.44-10.68-.05-14.84,5.32-11.53,14.92-31.31,18.2-46,7.23-5.87-4.38-8.15-3.95-13.34,1.44-13.69,14.23-30.9,15.3-46.29,2.88-5.35-4.31-7.61-4.22-12.77.5-14.67,13.41-31.84,13.45-46.38.11-5.34-4.9-7.48-5-13.07-.45-15.09,12.2-32.57,11.09-46-2.92-5.31-5.56-7.42-5.79-13.68-1.46-15.18,10.51-34.4,7.74-45.68-7.2-4.21-5.57-8.83-6.88-15.18-5.41C115,315.33,104.5,315.38,94.29,311c-11.76-5.05-14.56-12-9.59-23.68a3.65,3.65,0,0,0-.33-2.82C77,272,77.32,266.15,85.89,254.79c-2.79-8.06-5.41-15.62-8-23.19Zm136.78-47.79c-6.22-1-12.05-2.21-17.93-2.8-36-3.57-67.93,5.81-94.75,30.57-11,10.17-15,22.79-9.78,37.31,5.45,15,16.83,23.47,32.21,25.79,8.74,1.32,17.77.94,26.66.94q139.29.09,278.57.06c9.08,0,17.64-1.66,25.59-6.26,19.43-11.25,27.65-38.11,8.37-56.87-20.35-19.81-45.15-30.07-73.27-32.09C368,167.67,346.57,171.5,326.66,182c-13.8,7.26-27.31,15.09-34.15,30.4-1.38,3.08-4.28,3.94-7.44,2.8-3.55-1.29-4.5-4.82-2.86-9.07,4.26-11,12.86-18.07,21.94-24.71,3.35-2.45,6.87-4.67,10.41-7.06a6.68,6.68,0,0,0-.94-.71,6.46,6.46,0,0,0-1.12-.39c-30.41-7.83-59.9-5.28-87.91,9-14.14,7.22-27.33,16-35.14,30.83-1.64,3.11-4.43,4.16-7.78,2.64a5.61,5.61,0,0,1-2.58-8.41c3.7-5.76,7.46-11.77,12.39-16.41C198.39,184.37,206.39,179,214.65,172.61Zm-67.48,134c7.83,13.31,22.17,17.46,34.08,8,8.65-6.89,18.8-5.92,26,2.54,9.3,11,22.79,12.09,33.11,2.12,2.39-2.31,6.18-3.65,9.55-4.37,7-1.49,12.65,1.63,17.44,6.57a20.15,20.15,0,0,0,18.42,6.32c5.14-.78,8.9-3.81,12.55-7.2,8.52-7.94,17.92-8.17,26.81-.83a41.17,41.17,0,0,0,4.75,3.63c8.59,5.17,18.21,3.37,25.86-4.72,9.37-9.91,18.24-11.36,28.41-3.51,10.9,8.42,25.63,5.1,33.26-8.69-6.92-.69-14-.93-20.85-2.15-18.75-3.32-36.77-8.22-46.91-26.69-1.29,2.07-2.39,4.21-3.82,6.1-7.29,9.59-17.71,14.19-28.78,17.47a120.71,120.71,0,0,1-56.42,3c-18.34-3.34-36-8.44-45.38-25.78-3.4,3.79-6.59,8.27-10.66,11.71-9.28,7.84-20.63,11.38-32.33,13.47C163.94,305,155.49,305.59,147.17,306.56ZM95.11,263c-5.17,6.17-5.1,11.28.84,16.07a53.06,53.06,0,0,0,12.84,7.8c17,7.05,34.83,8,52.88,6.15,11-1.15,21.75-3.7,31.4-9.45,2.79-1.66,5.19-4,7.76-6l-.67-1h-4.33c-19.82,0-39.65-.22-59.47.07C121,276.84,107.18,273.17,95.11,263Zm374.22,0c-12.35,10.67-27,13.9-43,13.6-19.41-.37-38.84-.09-58.26-.09h-4.89a33.71,33.71,0,0,0,14.46,10.17c21.06,8.32,42.71,8.88,64.63,4.38,9.58-2,18.71-5.15,26.21-11.81C474.39,274.07,474.66,268.92,469.33,263ZM335.78,276.78H229.44l-.55.92c2.78,2.08,5.39,4.47,8.39,6.17,12.81,7.32,27,9.42,41.4,9.88,14.85.48,29.44-1.28,43.27-7.14C327,284.45,331.93,281.89,335.78,276.78ZM94.92,294.1c-1.23,4.87,10.31,9.6,17.92,7.57Zm355.71,8c7.09.35,12.94-.7,18.16-4.12.89-.58,1-2.41,1.63-4.27Z"/></svg>