<svg id="Layer_1" data-name="Layer 1" xmlns="http://www.w3.org/2000/svg" viewBox="0 0 595.28 573.89"><defs><style>.cls-1{fill:#e41d39;}</style></defs><path class="cls-1" d="M338.89,451c-6.69-3.26-8.58-8.63-8.56-15.94.2-71.57.32-143.15-.05-214.72-.07-14.13,8.41-25.94,23.89-27.18v-5.39c-5.27-1.12-6.05-5.05-5.95-9.8.17-8.19,0-16.37.06-24.56,0-5.86,2-7.85,7.76-7.89,4.79,0,9.59-.09,14.38,0,2.11.06,2.74-.71,3-2.78,1.52-13.11,3.21-26.19,4.86-39.28.48-3.79,2.6-5.88,6.53-6,5.73-.16,11.47-.17,17.19,0,3.92.12,5.9,2.16,6.4,6.09,1.65,13,3.35,25.94,4.83,38.93.29,2.49,1.25,3.09,3.54,3,4.91-.13,9.82-.1,14.74,0,4.61.07,6.86,2.27,6.91,6.95.08,9.36.19,18.72-.12,28.07-.06,2-1.39,5.12-2.94,5.75-3.68,1.49-3.28,3.87-2.87,6.75,2.26.44,4.57.71,6.77,1.36a23.55,23.55,0,0,1,16.91,22.1c.17,7.13.08,14.27.08,21.4,0,65.73-.08,131.46.11,197.19,0,7.27-1.86,12.7-8.63,15.89Zm3.75-191.49V396.76H444.05V259.55Zm-.2-12.41H444.19c0-10.41.22-20.57-.08-30.72-.19-6.21-5.43-10.9-12-10.93q-38.76-.17-77.51,0c-6.76,0-11.86,4.71-12.07,11.24C342.21,226.78,342.44,236.83,342.44,247.14Zm.13,191.7H443.94v-29.5H342.57Zm83.38-281H360.78v17.3H426ZM389.65,110c-1.49,12.06-2.93,23.67-4.37,35.29h16.15c-1.5-12-3-23.59-4.43-35.29Zm-23.06,77.8v5.4H420v-5.54H369.68C368.76,187.64,367.83,187.72,366.59,187.77Z"/><path class="cls-1" d="M164.77,451a9.23,9.23,0,0,0-1.55-.68c-14.92-3.55-24.78-15.93-24.43-31.3.28-12,1-24.07,1.62-36.09.8-15.53,2.29-31.05,2.42-46.59.2-24.05,5.75-46.57,15.92-68.3,7.61-16.25,14.45-32.9,21-49.61,2.62-6.66,3.73-13.94,5.26-21,.65-3,.64-6.21,1-9.85-1.83,0-3.31.08-4.77,0-4.36-.26-6.58-2.56-6.6-7q0-17.19,0-34.39c0-4.35,2.34-6.73,6.7-6.79,5.82-.08,11.64,0,17.6,0,1.52-12,3.05-23.72,4.45-35.41,1.37-11.4.94-12.8,13.43-12.42,5.49.18,11,0,16.5,0,4.46,0,6.59,2,7.15,6.43q2.51,20,5,40c0,.33.14.66.3,1.37,5.66,0,11.36,0,17.06,0s7.81,2.22,7.83,7.91c0,10.41,0,20.82,0,31.23,0,7.12-1.79,8.93-8.86,9-.91,0-1.81.1-3.05.17.18,8.54,1.19,16.83,4.09,24.54,5.65,15.06,12,29.87,18.14,44.73,4,9.6,8.28,19.05,12.15,28.69,6.05,15.06,7.73,30.93,8.47,47,1.24,26.63,2.81,53.24,4,79.88.24,5.3.17,10.87-1.2,15.93-3.11,11.52-11.08,18.62-22.6,21.73a16.51,16.51,0,0,0-1.87.74Zm33.61-263.22c-.21,1.7-.44,3.08-.55,4.47a110.21,110.21,0,0,1-8.15,34.62c-8,19.05-16.2,38-24.43,56.94a116.13,116.13,0,0,0-9.76,43.08c-.34,10.75-1.13,21.48-1.69,32.22-1,19.85-2.2,39.7-3,59.55-.47,11.33,7.85,20.24,19.15,20.3q52.29.28,104.58,0c10.09,0,17.79-6.71,18.88-16.73.67-6.09,0-12.35-.35-18.52-1-21.26-2.35-42.5-3.22-63.76-.79-19.34-2.29-38.45-10.55-56.4q-6.88-14.94-13-30.2c-5.53-13.59-11.26-27.15-15.9-41-2.58-7.76-3.13-16.19-4.64-24.54Zm59.82-36H186.84v23.33H258.2Zm-24.84-12.56c-1.5-12-3-23.72-4.47-35.65-4,0-7.63-.12-11.23.08a3,3,0,0,0-2.21,1.84c-1.49,11.18-2.82,22.38-4.21,33.73Z"/><path class="cls-1" d="M222.29,421.15q-22.8,0-45.6,0c-6.64,0-8.64-2-8.3-8.65,1.33-26.49,2.53-53,4.22-79.47,1.32-20.88,20.46-40.53,41.49-43.4,28.65-3.9,52.87,13.51,57.67,42,1.37,8.14,1.23,16.54,1.66,24.82,1,18.68,1.88,37.35,2.81,56,.32,6.45-1.76,8.65-8.34,8.66Q245.1,421.18,222.29,421.15Zm-41.51-12.41h83c0-1.41.05-2.57,0-3.72-.71-14.37-1.38-28.73-2.18-43.09-.55-9.8-.7-19.67-2.06-29.37-2.6-18.42-19.82-31.73-39.18-31.05-18.27.64-34.63,16-35.83,34.21s-2,36.43-2.87,54.65C181.31,396.42,181.07,402.47,180.78,408.74Z"/></svg>