<svg id="Layer_1" data-name="Layer 1" xmlns="http://www.w3.org/2000/svg" viewBox="0 0 566.93 566.93"><defs><style>.cls-1{fill:#0178ae;}.cls-2{fill:#0278ae;}.cls-3{fill:#fff;}.cls-4{fill:#e41937;}.cls-5{fill:#0078ad;}.cls-6{fill:#fefefe;}</style></defs><path class="cls-1" d="M235.83,293.61c19.87,27,74.76,27.65,95.2.08,11.42,15.14,26.86,20.57,45.44,20.18,13.32-.28,25.92-1.57,36.62-10.3a47.86,47.86,0,0,0,7.15-6.93c1.87-2.35,2.68-1.77,4.37.16,9.47,10.83,21.38,16.74,35.88,16.78,3.33,0,4.17,1.05,4.16,4.28q-.12,98.43-.08,196.87c0,8.47-4,12.36-12.75,12.37q-92.68,0-185.37.12c-4.33,0-4.31-2-4.3-5.13q.08-75.2,0-150.39c0-12.16-3.16-15.28-15.42-15.28H168.82c-9.6,0-13.35,3.73-13.35,13.26,0,50.63-.08,101.26.11,151.9,0,4.69-1.33,5.76-5.78,5.64-11.49-.31-23-.07-34.48-.12-9.27,0-13.06-3.81-13.06-13.05q0-97.68-.09-195.37c0-3.74.74-5.15,4.85-5.16,13.92-.06,25.43-5.85,34.66-16.12,2-2.2,2.84-3.2,5.37-.26a45.66,45.66,0,0,0,36,16.5c7.31,0,14.69.67,21.94-.63C217.66,310.74,227.82,304.21,235.83,293.61ZM411.37,410c0-13.65,0-27.31,0-41,0-8.58-4-12.58-12.51-12.59q-35.48,0-70.94,0c-8.53,0-12.49,4-12.5,12.59q0,40.71,0,81.43c0,8.45,4.06,12.64,12.5,12.66q35.46.11,70.93,0c8.44,0,12.48-4.21,12.51-12.67C411.4,437,411.37,423.47,411.37,410Z"/><path class="cls-2" d="M349.56,121.74c5.83,0,11.67.19,17.49-.07,3.25-.15,4.55.94,5.42,4.11q16.3,59.37,32.88,118.66c1.42,5.12,3,10.23,4.1,15.41,3.4,15.44-6.34,30-21.94,32.22a75.42,75.42,0,0,1-21.43,0c-12.19-1.75-21-10.95-22.45-23.44-3.56-30.74-6.84-61.52-10.26-92.28-1.83-16.54-3.61-33.09-5.66-49.6-.48-3.83.11-5.36,4.37-5.09C337.89,122,343.74,121.74,349.56,121.74Z"/><path class="cls-2" d="M173.42,121.75c-4.21,15.21-8.27,29.9-12.34,44.59Q146.76,218,132.44,269.57c-4.41,15.93-13.44,22.89-30,22.86A61.74,61.74,0,0,1,92,292c-18.85-3.3-28-20.71-20.13-38.51q19.9-45.13,40.06-90.17c4.12-9.25,8.29-18.49,12.38-27.76s11.24-13.69,21.18-13.79C154.63,121.67,163.75,121.75,173.42,121.75Z"/><path class="cls-2" d="M394,121.82c9.87,0,19.69-.32,29.49.09,8.68.36,15.13,4.87,18.69,12.87C460,174.84,478,214.85,495.48,255c7.78,17.84-4.36,36.47-23.79,37.29-5.45.24-11,.71-16.4-.61-9.88-2.38-16.89-8.34-19.61-18-14.15-50.2-28-100.49-41.9-150.75A5.52,5.52,0,0,1,394,121.82Z"/><path class="cls-2" d="M225.4,121.74c-10.19,12.24-10.78,12.91.76,22.94,8.24,7.15,9.69,14.56,8.36,24.8-4.25,32.83-7.49,65.79-11.25,98.68-1.64,14.4-12.6,24.2-27,24.23-6.46,0-13,.78-19.4-.8-14-3.45-23.16-17.31-19.48-31.25,8.2-31.16,17-62.17,25.62-93.23,3.81-13.77,7.76-27.51,11.38-41.33.84-3.19,2.17-4.21,5.42-4.11C208,121.9,216.31,121.74,225.4,121.74Z"/><path class="cls-2" d="M255.23,175c6.86,3.74,9.1,3.44,14.18-1.63q17-16.92,33.89-33.88c1.15-1.14,2.34-2.22,4.05-3.84,1.7,14.88,3.35,29,4.92,43.2,2.86,25.78,5.6,51.57,8.52,77.35,2.2,19.37-12.1,35.92-31.62,36.17-5.8.07-11.64.6-17.42-.59A32.06,32.06,0,0,1,246,256.25c2.92-25.77,5.68-51.56,8.52-77.35C254.68,177.78,254.94,176.68,255.23,175Z"/><path class="cls-3" d="M355.08,79.47q-21.3-21.28-42.58-42.58l-.28-.28a5.34,5.34,0,0,0-7.64.12q-23.07,23.06-46.14,46.12c-.23.24-.29.37-.12.58-.23-.17-.36-.1-.61.14q-23,23-46,46a7.26,7.26,0,0,0-.69.78,5.35,5.35,0,0,0,.69,7.13L248.22,174c2.07,2.07,4.16,4.14,6.23,6.23A5.57,5.57,0,0,0,258.4,182a5.69,5.69,0,0,0,4-1.77q23-23,46-45.95c.29-.29.32-.45.14-.68.22.18.36.15.6-.1L355.3,87.25a5.29,5.29,0,0,0,1.57-3.69A5.6,5.6,0,0,0,355.08,79.47ZM240.67,145.8l-.49,0Zm-.92,0h0Z"/><path class="cls-4" d="M352.37,84.38a4.81,4.81,0,0,1-1.44,3.39Q329.69,109,308.47,130.24c-.27.27-.4.27-.66,0q-22.92-22.93-45.87-45.86c-.27-.27-.24-.4,0-.65q21.21-21.18,42.39-42.37a4.9,4.9,0,0,1,7-.11l.25.26,39.12,39.11A5.19,5.19,0,0,1,352.37,84.38ZM308,95.62a11.45,11.45,0,1,0-11.47-11.45A11.44,11.44,0,0,0,308,95.62Z"/><path class="cls-5" d="M259.06,177.63a5.14,5.14,0,0,1-3.63-1.58q-2.85-2.87-5.72-5.72-16.77-16.79-33.55-33.55a4.93,4.93,0,0,1-.63-6.56,7.1,7.1,0,0,1,.63-.71q21.14-21.13,42.27-42.29c.27-.26.4-.3.69,0Q282,110.13,304.92,133c.31.31.34.46,0,.79Q283.81,154.89,262.71,176A5.2,5.2,0,0,1,259.06,177.63Zm28.2-44.16a11.44,11.44,0,1,0-11.44,11.42A11.46,11.46,0,0,0,287.26,133.47ZM253.61,133a11.44,11.44,0,1,0-11.48,11.41A11.43,11.43,0,0,0,253.61,133Z"/><path class="cls-6" d="M308,95.62a11.45,11.45,0,1,1,11.44-11.31A11.43,11.43,0,0,1,308,95.62Z"/><path class="cls-6" d="M287.26,133.47A11.44,11.44,0,1,1,275.87,122,11.48,11.48,0,0,1,287.26,133.47Z"/><path class="cls-6" d="M253.61,133a11.44,11.44,0,1,1-11.29-11.46A11.4,11.4,0,0,1,253.61,133Z"/></svg>