<svg id="Layer_1" data-name="Layer 1" xmlns="http://www.w3.org/2000/svg" viewBox="0 0 566.93 566.93"><defs><style>.cls-1{fill:#fff;}.cls-2{fill:#e41937;}.cls-3{fill:#0078ad;}.cls-4{fill:#fefefe;}</style></defs><path class="cls-1" d="M254.34,293.69c19.87,27,74.76,27.65,95.2.08C361,308.91,376.4,314.34,395,313.94c13.32-.28,25.92-1.56,36.62-10.3a46.84,46.84,0,0,0,7.15-6.92c1.88-2.36,2.68-1.77,4.37.16,9.47,10.83,21.39,16.74,35.89,16.77,3.32,0,4.16,1.06,4.16,4.29q-.14,98.43-.09,196.86c0,8.48-4,12.37-12.75,12.37-61.79,0-123.58,0-185.37.12-4.33,0-4.3-2-4.3-5.12q.07-75.19,0-150.4c0-12.15-3.16-15.27-15.43-15.27H187.33c-9.59,0-13.35,3.73-13.35,13.26,0,50.63-.07,101.26.11,151.89,0,4.7-1.33,5.77-5.78,5.65-11.48-.31-23-.07-34.47-.12-9.27,0-13.07-3.82-13.07-13.06q0-97.68-.09-195.36c0-3.74.74-5.15,4.85-5.17,13.92-.06,25.43-5.84,34.66-16.11,2-2.21,2.84-3.2,5.37-.27a45.64,45.64,0,0,0,36,16.51c7.32,0,14.69.67,21.94-.63C236.18,310.82,246.33,304.29,254.34,293.69ZM429.88,410.06c0-13.66,0-27.31,0-41,0-8.58-4-12.58-12.51-12.59q-35.46-.06-70.93,0c-8.54,0-12.49,4-12.5,12.59q0,40.71,0,81.42c0,8.46,4.06,12.64,12.5,12.67q35.46.1,70.93,0c8.44,0,12.48-4.21,12.51-12.67C429.91,437,429.88,423.55,429.88,410.06Z"/><path class="cls-1" d="M368.08,121.82c5.83,0,11.66.19,17.48-.07,3.26-.15,4.55.93,5.42,4.11q16.31,59.37,32.88,118.66c1.42,5.12,3,10.22,4.11,15.41,3.39,15.44-6.34,29.95-22,32.22a75.35,75.35,0,0,1-21.42,0c-12.2-1.74-21-10.94-22.45-23.43-3.57-30.75-6.85-61.52-10.26-92.29-1.84-16.53-3.62-33.08-5.67-49.59-.47-3.84.11-5.37,4.37-5.09C356.4,122.1,362.25,121.82,368.08,121.82Z"/><path class="cls-1" d="M191.93,121.82c-4.21,15.21-8.27,29.91-12.34,44.6Q165.28,218,151,269.64c-4.41,15.94-13.44,22.89-30,22.86a61.58,61.58,0,0,1-10.45-.42c-18.86-3.3-28-20.71-20.14-38.51q19.91-45.13,40.06-90.17c4.12-9.26,8.29-18.49,12.38-27.76S154.08,122,164,121.84C173.15,121.75,182.27,121.82,191.93,121.82Z"/><path class="cls-1" d="M412.48,121.89c9.88,0,19.7-.31,29.49.1,8.68.36,15.13,4.87,18.69,12.87,17.86,40,35.81,80.06,53.33,120.26,7.78,17.84-4.35,36.47-23.78,37.29-5.46.23-11,.7-16.41-.61-9.87-2.38-16.89-8.34-19.61-18-14.14-50.2-28-100.49-41.9-150.76A6.66,6.66,0,0,1,412.48,121.89Z"/><path class="cls-1" d="M243.91,121.82c-10.19,12.24-10.78,12.91.77,22.94,8.23,7.15,9.68,14.56,8.36,24.8-4.26,32.82-7.5,65.79-11.26,98.68-1.64,14.4-12.6,24.2-27,24.22-6.46,0-13,.79-19.4-.79-14-3.45-23.15-17.31-19.48-31.25,8.2-31.17,17-62.17,25.62-93.24,3.81-13.77,7.76-27.5,11.38-41.32.84-3.19,2.17-4.21,5.42-4.12C226.55,122,234.83,121.82,243.91,121.82Z"/><path class="cls-1" d="M273.75,175.1c6.85,3.73,9.09,3.44,14.17-1.63q17-16.92,33.9-33.88c1.14-1.14,2.34-2.23,4-3.84,1.7,14.87,3.35,29,4.93,43.2,2.85,25.78,5.59,51.57,8.51,77.34,2.2,19.38-12.09,35.93-31.62,36.17-5.8.08-11.64.61-17.42-.58a32.06,32.06,0,0,1-25.71-35.55c2.92-25.78,5.68-51.57,8.52-77.35C273.19,177.86,273.45,176.76,273.75,175.1Z"/><path class="cls-1" d="M373.6,79.39,331,36.81l-.28-.27a5.33,5.33,0,0,0-7.64.11Q300,59.72,277,82.77c-.24.24-.3.37-.13.58-.22-.16-.36-.1-.6.14l-46,46a7.28,7.28,0,0,0-.69.77,5.38,5.38,0,0,0,.69,7.14L266.73,174l6.23,6.23a5.57,5.57,0,0,0,4,1.72,5.72,5.72,0,0,0,4-1.76q23-23,46-46c.29-.29.32-.46.15-.69.21.18.35.15.6-.1q23.1-23.13,46.22-46.24a5.28,5.28,0,0,0,1.57-3.68A5.65,5.65,0,0,0,373.6,79.39ZM259.18,145.73h0Zm-.92,0h0Z"/><path class="cls-2" d="M370.88,84.31a4.8,4.8,0,0,1-1.44,3.38Q348.22,108.93,327,130.17c-.27.27-.4.26-.66,0Q303.4,107.22,280.45,84.3c-.27-.27-.24-.39,0-.65l42.38-42.37a4.9,4.9,0,0,1,7-.1l.25.25,39.12,39.11A5.2,5.2,0,0,1,370.88,84.31ZM326.55,95.54a11.45,11.45,0,1,0-11.47-11.45A11.43,11.43,0,0,0,326.55,95.54Z"/><path class="cls-3" d="M277.57,177.55a5.11,5.11,0,0,1-3.63-1.57c-1.9-1.92-3.81-3.82-5.72-5.73L234.67,136.7a4.94,4.94,0,0,1-.63-6.56,8.42,8.42,0,0,1,.63-.71q21.14-21.14,42.27-42.28c.27-.27.4-.31.69,0q22.89,22.92,45.8,45.81c.31.31.34.45,0,.78q-21.12,21.09-42.22,42.21A5.19,5.19,0,0,1,277.57,177.55Zm28.21-44.16a11.44,11.44,0,1,0-11.45,11.42A11.46,11.46,0,0,0,305.78,133.39Zm-33.66-.47a11.43,11.43,0,1,0-11.48,11.41A11.44,11.44,0,0,0,272.12,132.92Z"/><path class="cls-4" d="M326.55,95.54A11.45,11.45,0,1,1,338,84.23,11.42,11.42,0,0,1,326.55,95.54Z"/><path class="cls-4" d="M305.78,133.39a11.44,11.44,0,1,1-11.39-11.47A11.49,11.49,0,0,1,305.78,133.39Z"/><path class="cls-4" d="M272.12,132.92a11.43,11.43,0,1,1-11.29-11.46A11.39,11.39,0,0,1,272.12,132.92Z"/></svg>