<svg id="Layer_1" data-name="Layer 1" xmlns="http://www.w3.org/2000/svg" viewBox="0 0 595.28 573.89"><defs><style>.cls-1{fill:#e41d39;}</style></defs><path class="cls-1" d="M381.37,85c1,.36,2,.77,3.07,1.08,10.56,3.07,18.27,9.45,22.47,19.74.82,2,1.63,2.71,4,2.66,14.36-.33,25.14,5.79,32.2,18.45a9.77,9.77,0,0,0,3.57,3.48c12.59,7.15,18.65,18,18.25,32.37-.06,2.25.81,2.78,2.43,3.79a97.25,97.25,0,0,1,12.41,8.75,5.52,5.52,0,0,1,.16,8.57c-2.5,2.25-5.54,2.11-8.26-.77a24.16,24.16,0,0,0-14.18-7.61c-4.55-.72-6-3.7-4.77-8.7,2.07-8.22.39-15.46-5.54-22-1.07,3.75-1.41,7.51-3.15,10.43a98.08,98.08,0,0,1-10.2,13.6c-1.28,1.48-2.13,2.33-1.42,4.35,2.4,6.82,4.62,13.69,6.93,20.54a8.9,8.9,0,0,0,1.06,2.37c13,18.34,13.65,37.39,3.3,57.15,1,1.09,2.37,2,2.93,3.31,2,4.5,4.72,3.14,7.76,1.45a22.73,22.73,0,0,0,9.14-29.83c-3.18-6.47-2.92-7.34,3.26-11.39,4.79-3.13,7.68-7.61,9.67-12.93a8.29,8.29,0,0,1,4.21-4.61c4.32-1.51,7.9,2.67,6.63,7.39a32.42,32.42,0,0,1-10.3,16.6c-1.64,1.4-2.09,2.46-1.42,4.67,5.77,19-4.29,37.35-23.44,43.19a7.08,7.08,0,0,0-2.93,2.35c-2.47,2.91-4.38,6.46-7.27,8.82q-106.1,86.39-212.37,172.53c-3.88,3.15-7.63,6.47-11.68,9.37-2.67,1.92-5.78,3.25-8.69,4.84H201c-5.68-1.68-9.85-5.42-14-9.56q-36.64-37-73.55-73.72c-7.81-7.81-8.12-18.87-.71-28.07q18.8-23.34,37.62-46.65,48.21-59.78,96.44-119.51c1.07-1.32,2.47-3.2,3.81-3.3,2.09-.14,4.82.43,6.29,1.77,2.3,2.12,1.62,5-.3,7.44q-9.62,12-19.28,23.91l-115,142.57c-5.49,6.82-4.87,11,2.25,16.17a92.76,92.76,0,0,0,41.63,17c.35-4.68.32-9.28,1.1-13.74,1.5-8.57,3.32-17.1,5.29-25.58.91-3.92,4-5.7,7.16-4.79,3.33,1,4.87,4.14,3.6,8.21a112.45,112.45,0,0,0-5.48,35.36,94.53,94.53,0,0,0,19.54,57.06c3.58,4.72,8.36,5.44,13,1.95,2.4-1.78,4.67-3.74,7.34-5.89-7.17-6.41-10.06-14.35-8.36-23.62a23.09,23.09,0,0,1,9.56-14.7c8.62-6.33,24.83-7.81,35.48,8.48q8.42-6.79,16.78-13.55L434.64,273.64c6-4.85,5.92-8.34-.26-13-20.6-15.46-43.88-23.81-69.43-25.77-42.41-3.25-80.53,8.28-113.47,35.16-22.81,18.62-43.34,39.55-57.42,66-1.91,3.59-5.09,4.61-8.09,2.94s-3.72-4.87-1.8-8.44c11.87-22,27.87-40.73,46.54-57.22,8.49-7.5,17.13-14.83,25.81-22.34-4.72-10.87-2.37-20,6.61-24.65,8.71-4.46,17.95-.92,23.81,9.33a180.29,180.29,0,0,1,55.29-12.54c-1.45-10.76-2.32-21.2-4.36-31.39a123.51,123.51,0,0,0-23.56-51.61c-3.66-4.76-7.52-4.87-11.35-.16-9.77,12-19.46,24.09-29.18,36.14-.31.38-.6.8-.93,1.17-2.43,2.76-5.77,3.28-8.27,1.3s-3-5.34-.65-8.3c10.46-13.06,20.54-26.47,31.75-38.85a41.55,41.55,0,0,0,8.4-14c6.14-16.42,24.55-25,41.36-19.67,2.18.69,3.47.54,5-1.37,5.07-6.29,12.14-9.29,19.7-11.34Zm46.53,74a21.59,21.59,0,0,0,7.48-14.75c1.2-14.16-12.53-28.53-28.86-23.54-5.08,1.55-7.69-.36-8.64-5.73-1.73-9.68-8.43-16.34-18.35-18.23-9.25-1.77-17.94,2.14-23,10.34-3.28,5.34-5.13,6-10.26,3.23a22.35,22.35,0,0,0-16.62-2.11c-8.56,2.2-15.59,10-15.85,17.17l9.18,6.26c.23-.1.68-.3,1.12-.52q29-14.89,55.58,4.1a18.08,18.08,0,0,0,4.65,2.27c12,4.06,24,8.12,36.11,12,3.26,1.06,5.46,2.8,6.26,6.2A33.81,33.81,0,0,0,427.9,159Zm-92.55-7.44c5.59-2.55,11.22-4.27,17.4-3.1,14.59,2.77,23.65,14.11,23.2,29a3.56,3.56,0,0,0,1.46,2.72c2.94,1.56,6,2.8,9.09,4.17,5.62-12-1.78-31.64-15.43-41.28s-32.55-8.82-41.5-1.18Zm60.78,48.35c10.82-1.13,19.88,2.35,26.22,11.45s6.4,19,1.65,29l10.3,6.14c7.15-13.73,7.17-27.15-.74-40.06-8-13.07-20-19.18-35.73-18.73C397.59,191.84,393.36,195.11,396.13,199.92Zm-42.95,22.76c6.16.42,12.1.86,18,1.17a3.88,3.88,0,0,0,2.68-.77,83.07,83.07,0,0,0,8.47-8.94c4.32-5.73,3.43-13.93-1.66-19.16-4.86-5-13.18-6.11-18.78-1.95-3.57,2.65-6.57,6.08-9.74,9.23a2.81,2.81,0,0,0-.58,2C352.08,210.34,352.63,216.4,353.18,222.68Zm69.75-42.1c-.64-2-1.41-4.43-2.24-6.86-1.52-4.46-1.93-10.08-4.93-13s-8.78-3.58-13.34-5.15c-2.46-.84-5-1.57-7.09-2.24,1.68,7.7,3.27,15,4.82,22.15Zm-9.48,54.23a14.52,14.52,0,0,0,0-16.34c-3.26-5.14-9.53-8.23-14.91-7.24-1,.19-2.43.54-2.86,1.28-2.73,4.7-5.25,9.53-7.69,14Zm-64-46.49a62.79,62.79,0,0,1,6-4.78c2.19-1.35,4.72-2.15,7-3.34a3.37,3.37,0,0,0,1.58-1.77c1.59-5.15-1-11.88-5.8-15.57-4.64-3.53-11.95-4.41-16.15-1.69a3.3,3.3,0,0,0-.95,2.91C343.83,172.08,346.62,180,349.47,188.32ZM227.24,442c5.27-4.29,10.28-8.61,15.57-12.54,2.41-1.78,2-3.28.73-5.26a12.59,12.59,0,0,0-23,4.51C219.5,434.06,221.77,438.69,227.24,442Zm-56.67-16c-.94-4.68-1.88-9.68-3-14.63-.23-1-1-2.48-1.84-2.67-5.23-1.21-10.54-2.13-15.56-3.1ZM267,245.28c2.57-1.34,4.95-2.68,7.41-3.84,2-.95,1.71-2.1.6-3.49a5.56,5.56,0,0,0-7.38-1.07C264.93,238.73,264.61,241.67,267,245.28Z"/><path class="cls-1" d="M276.85,331.89a18.46,18.46,0,1,1,18.4-18.54A18.39,18.39,0,0,1,276.85,331.89Zm-7.12-18.39a7,7,0,0,0,7.12,7.05,7.26,7.26,0,0,0,7.13-7.19,7.44,7.44,0,0,0-7.27-7.12A7.12,7.12,0,0,0,269.73,313.5Z"/><path class="cls-1" d="M369.29,270.19a16.54,16.54,0,0,1,16.66,17A16.77,16.77,0,0,1,369,303.94a17,17,0,0,1-16.77-17.06A16.84,16.84,0,0,1,369.29,270.19Zm5.37,16.71a5.52,5.52,0,0,0-11,0,5.71,5.71,0,0,0,5.75,5.64A5.61,5.61,0,0,0,374.66,286.9Z"/><path class="cls-1" d="M302.78,176.9a5.57,5.57,0,0,1,5.41,5.92,5.72,5.72,0,0,1-5.56,5.44,6,6,0,0,1-5.71-5.78A5.83,5.83,0,0,1,302.78,176.9Z"/><path class="cls-1" d="M318.53,274.9a5.65,5.65,0,0,1-5.73-5.63,5.7,5.7,0,0,1,11.39-.08A5.64,5.64,0,0,1,318.53,274.9Z"/><path class="cls-1" d="M279.89,376.91a5.84,5.84,0,0,1-5.77,5.66,6,6,0,0,1-5.57-5.94,5.76,5.76,0,0,1,5.65-5.36A5.56,5.56,0,0,1,279.89,376.91Z"/><path class="cls-1" d="M226.91,355.37a5.66,5.66,0,0,1-5.66,5.71,5.52,5.52,0,0,1-5.69-5.25,5.81,5.81,0,0,1,5.41-6A5.94,5.94,0,0,1,226.91,355.37Z"/><path class="cls-1" d="M153,364a5.67,5.67,0,0,1-5.73-5.64,5.85,5.85,0,0,1,5.86-5.58,5.73,5.73,0,0,1,5.47,5.53A5.47,5.47,0,0,1,153,364Z"/></svg>